<svg width="17" height="17" viewBox="0 0 17 17" fill="none" xmlns="http://www.w3.org/2000/svg">
<g clip-path="url(#clip0_24_1849)">
<g clip-path="url(#clip1_24_1849)">
<path d="M8.79006 9.22617C8.67806 9.27417 8.55006 9.27417 8.45406 9.22617L1.41406 5.80217V4.76217C1.41406 4.55417 1.59006 4.37817 1.79806 4.37817H15.4301C15.6381 4.37817 15.8141 4.55417 15.8141 4.76217V5.81817L8.79006 9.22617ZM1.41406 6.76217V13.1942C1.41406 13.4022 1.59006 13.5782 1.79806 13.5782H15.4301C15.6381 13.5782 15.8141 13.4022 15.8141 13.1942V6.76217L8.79006 10.1862C8.67806 10.2342 8.55006 10.2342 8.45406 10.1862L1.41406 6.76217Z" fill="white"/>
</g>
</g>
<defs>
<clipPath id="clip0_24_1849">
<rect x="0.550049" y="0.970215" width="16" height="16" rx="4" fill="white"/>
</clipPath>
<clipPath id="clip1_24_1849">
<rect width="16" height="16" fill="white" transform="translate(0.550049 0.970215)"/>
</clipPath>
</defs>
</svg>
