<svg width="80" height="61" viewBox="0 0 80 61" fill="none" xmlns="http://www.w3.org/2000/svg">
<g clip-path="url(#clip0_24_1391)">
<g clip-path="url(#clip1_24_1391)">
<g clip-path="url(#clip2_24_1391)">
<path d="M34.0428 48.2279L28.4565 60.1948H29.3928L35.9426 48.3695L34.0428 48.2279Z" fill="#4C4C56"/>
<path opacity="0.1" d="M34.0428 48.2279L28.4565 60.1948H29.3928L35.9426 48.3695L34.0428 48.2279Z" fill="black"/>
<path d="M34.0423 60.1948H28.4563V61.4464L34.0423 61.588V60.1948Z" fill="#4C4C56"/>
<path opacity="0.1" d="M34.0423 60.1948H28.4563V61.4464L34.0423 61.588V60.1948Z" fill="black"/>
<path d="M77.4929 4.19294V45.9807C77.4929 46.388 77.4127 46.7912 77.2568 47.1675C77.101 47.5438 76.8725 47.8857 76.5845 48.1737C76.2966 48.4616 75.9547 48.6901 75.5784 48.8459C75.2021 49.0018 74.7988 49.082 74.3916 49.082H4.73751C4.32755 49.0822 3.92168 49.0006 3.54364 48.8419C3.16561 48.6833 2.82301 48.4509 2.53588 48.1583C2.24875 47.8657 2.02286 47.5188 1.87142 47.1378C1.71999 46.7569 1.64606 46.3495 1.65395 45.9396L2.44417 4.11526C2.45986 3.30802 2.79159 2.53915 3.36807 1.97387C3.94456 1.40859 4.71979 1.09201 5.52718 1.09216H74.3914C75.2138 1.09211 76.0026 1.41876 76.5843 2.00026C77.1659 2.58176 77.4927 3.37048 77.4929 4.19294Z" fill="#4C4C56"/>
<g filter="url(#filter0_d_24_1391)">
<path opacity="0.36" d="M77.4929 4.19294V45.9807C77.4929 46.388 77.4127 46.7912 77.2568 47.1675C77.101 47.5438 76.8725 47.8857 76.5845 48.1737C76.2966 48.4616 75.9547 48.6901 75.5784 48.8459C75.2021 49.0018 74.7988 49.082 74.3916 49.082H4.73751C4.32755 49.0822 3.92168 49.0006 3.54364 48.8419C3.16561 48.6833 2.82301 48.4509 2.53588 48.1583C2.24875 47.8657 2.02286 47.5188 1.87142 47.1378C1.71999 46.7569 1.64606 46.3495 1.65395 45.9396L2.44417 4.11526C2.45986 3.30802 2.79159 2.53915 3.36807 1.97387C3.94456 1.40859 4.71979 1.09201 5.52718 1.09216H74.3914C75.2138 1.09211 76.0026 1.41876 76.5843 2.00026C77.1659 2.58176 77.4927 3.37048 77.4929 4.19294Z" fill="black"/>
</g>
<path d="M80.0043 4.193V45.9809C80.0043 46.8034 79.6775 47.5923 79.0959 48.1739C78.5143 48.7555 77.7255 49.0823 76.903 49.0823H7.24964C6.83984 49.0825 6.43413 49.0009 6.05629 48.8422C5.67844 48.6836 5.33608 48.4511 5.04928 48.1584C4.76248 47.8657 4.53702 47.5187 4.38611 47.1377C4.2352 46.7567 4.16189 46.3494 4.17048 45.9397L4.96069 4.11531C4.97636 3.30893 5.30741 2.5408 5.88283 1.97566C6.45825 1.41051 7.23222 1.09336 8.03875 1.09222H76.8843C77.2931 1.0898 77.6983 1.16824 78.0767 1.32301C78.4551 1.47779 78.7992 1.70584 79.0891 1.99407C79.379 2.2823 79.6091 2.625 79.7661 3.00247C79.9231 3.37994 80.0039 3.78473 80.0039 4.19354L80.0043 4.193Z" fill="#4C4C56"/>
<path d="M77.2644 6.80555V43.5957C77.2644 44.0029 77.1842 44.4062 77.0283 44.7825C76.8725 45.1588 76.644 45.5007 76.3561 45.7886C76.0681 46.0766 75.7262 46.3051 75.3499 46.4609C74.9737 46.6168 74.5704 46.697 74.1631 46.697H9.66571C8.84818 46.697 8.06411 46.3723 7.48595 45.7943C6.9078 45.2162 6.5829 44.4323 6.5827 43.6147V6.78228C6.58401 5.96547 6.90941 5.18257 7.48744 4.60546C8.06547 4.02836 8.8489 3.70422 9.66571 3.70422H74.1629C74.5702 3.7042 74.9735 3.7844 75.3498 3.94025C75.7261 4.09609 76.068 4.32453 76.356 4.61252C76.644 4.90051 76.8725 5.2424 77.0283 5.61868C77.1842 5.99496 77.2644 6.39826 77.2644 6.80555Z" fill="url(#paint0_linear_24_1391)"/>
<path d="M49.3571 48.397L43.2321 60.1948H29.3926L36.3123 46.6979L49.3571 48.397Z" fill="#4C4C56"/>
<path d="M54.2352 60.1948L55.2583 61.4464H34.0424V60.1948H54.2352Z" fill="#4C4C56"/>
<path d="M11.1682 11.1055L39.3728 11.5285V38.8813L11.1682 39.3038V11.1055Z" fill="black"/>
<g filter="url(#filter1_d_24_1391)">
<path d="M9.85147 9.75916V40.6431L40.6209 40.1381V10.2641L9.85147 9.75916ZM11.1749 11.1003L39.379 11.5235V38.8803L11.1679 39.3037L11.1749 11.1003Z" fill="#FF7BBC"/>
</g>
<path d="M32.3988 22.7962C32.1673 22.6985 31.917 22.6534 31.6659 22.6641C31.2913 22.6589 30.92 22.7357 30.5782 22.8893C30.2512 23.0405 29.9634 23.265 29.7374 23.5456C29.4904 23.8563 29.3062 24.2122 29.1952 24.5934C29.0626 25.0477 28.9979 25.519 29.0032 25.9923C28.9945 26.5073 29.0594 27.0209 29.1958 27.5175C29.2991 27.8951 29.48 28.2469 29.7271 28.5505C29.9417 28.807 30.2151 29.0077 30.5241 29.1355C30.8385 29.2615 31.1749 29.3233 31.5135 29.3173C31.5879 29.3192 31.6621 29.3176 31.7361 29.3123C31.8101 29.3071 31.8834 29.2984 31.956 29.2863C32.0293 29.2741 32.1016 29.2584 32.1731 29.2392C32.2445 29.2201 32.3153 29.1975 32.3854 29.1715V22.7962H32.3988ZM26.7031 26.0994C26.6981 25.38 26.8159 24.665 27.0512 23.9851C27.2692 23.3566 27.6094 22.7775 28.0523 22.2812C28.4924 21.7929 29.0335 21.4063 29.6381 21.1483C30.3026 20.8705 31.0174 20.7328 31.7376 20.744C31.7924 20.743 31.8474 20.743 31.9025 20.744C31.9576 20.745 32.0125 20.7466 32.0674 20.7489C32.1221 20.7515 32.1767 20.7549 32.2313 20.7592C32.2859 20.7635 32.3405 20.7686 32.395 20.7746V17.4255C32.3949 17.4082 32.3984 17.391 32.405 17.375C32.4114 17.3597 32.4207 17.3457 32.4323 17.3339C32.4439 17.3222 32.4577 17.3129 32.4728 17.3065C32.4885 17.2998 32.5054 17.2965 32.5225 17.2967L34.5483 17.3142C34.5692 17.3139 34.5899 17.3165 34.6101 17.3218C34.6243 17.3256 34.6375 17.3328 34.6484 17.3427C34.6576 17.3518 34.6644 17.3632 34.668 17.3757C34.6719 17.3899 34.6738 17.4046 34.6735 17.4193V29.161C34.6716 29.2662 34.6716 29.3713 34.6735 29.4765C34.6753 29.5817 34.6788 29.6867 34.6839 29.7916C34.6891 29.8966 34.6962 30.0014 34.7052 30.1062C34.7141 30.211 34.7247 30.3156 34.737 30.4199C34.737 30.4424 34.737 30.4604 34.7359 30.4749C34.7354 30.4872 34.7327 30.4993 34.7277 30.5106C34.7225 30.5209 34.7148 30.5298 34.7053 30.5364C34.6916 30.5462 34.6771 30.5547 34.6619 30.5619C33.6575 31.0578 32.5538 31.3198 31.4336 31.3285C30.7875 31.341 30.1446 31.2354 29.5364 31.017C28.9707 30.81 28.459 30.4781 28.0393 30.046C27.5964 29.5784 27.2612 29.0195 27.0573 28.4085C26.8116 27.6641 26.6924 26.8838 26.7048 26.1L26.7031 26.0994ZM22.3229 23.9941L25.9266 31.0368C25.9415 31.0598 25.9516 31.0855 25.9563 31.1125C25.9602 31.1347 25.9583 31.1575 25.9508 31.1788C25.9439 31.198 25.9311 31.2145 25.9142 31.2259C25.8951 31.2382 25.8728 31.2446 25.8501 31.2442L23.6168 31.2589C23.5738 31.2646 23.5301 31.2589 23.49 31.2426C23.4498 31.2262 23.4147 31.1996 23.388 31.1654C23.3698 31.1422 23.3559 31.116 23.3468 31.0879C23.1407 30.6604 22.9334 30.2281 22.7249 29.7911C22.5164 29.3541 22.3067 28.9131 22.0959 28.4681C21.885 28.0226 21.6729 27.5729 21.4596 27.1189C21.2463 26.6649 21.0318 26.2064 20.816 25.7434H20.7901C20.5957 26.1806 20.3966 26.6277 20.1939 27.0795C19.9913 27.5313 19.7854 27.988 19.5776 28.4439C19.3698 28.8997 19.1604 29.3552 18.9508 29.8045C18.7412 30.2537 18.5314 30.6969 18.3231 31.1284C18.3076 31.1616 18.2851 31.191 18.2571 31.2147C18.2291 31.2383 18.1963 31.2556 18.161 31.2653C18.1371 31.2718 18.1124 31.2748 18.0877 31.2741L15.9213 31.2878C15.8948 31.2891 15.8684 31.2831 15.8451 31.2704C15.8276 31.2606 15.8145 31.2446 15.8084 31.2255C15.8027 31.206 15.8027 31.1853 15.8084 31.1658C15.8151 31.143 15.8264 31.1219 15.8416 31.1037L19.4145 24.1986L15.9612 17.3457C15.9451 17.3285 15.9344 17.307 15.9307 17.2837C15.9269 17.2606 15.9302 17.2368 15.9402 17.2156C15.9501 17.1944 15.9662 17.1768 15.9864 17.165C16.0066 17.1532 16.0299 17.1479 16.0532 17.1496L18.2969 17.169C18.3256 17.1688 18.3543 17.1711 18.3827 17.1756C18.4055 17.1792 18.4276 17.1868 18.4479 17.198C18.467 17.2091 18.4833 17.2242 18.4959 17.2423C18.511 17.2649 18.5225 17.2896 18.5301 17.3156C18.7352 17.7513 18.9407 18.1858 19.1465 18.6192C19.3523 19.0526 19.557 19.4859 19.7606 19.9191C19.9642 20.3524 20.1662 20.7864 20.3665 21.2213C20.5669 21.6561 20.7641 22.0928 20.9581 22.5313H20.984C21.1713 22.1013 21.3628 21.6707 21.5582 21.2394C21.7536 20.8081 21.9511 20.3776 22.1507 19.9477C22.3499 19.5179 22.5498 19.0892 22.7502 18.6617C22.9506 18.2342 23.1492 17.8093 23.3458 17.3871C23.3616 17.3609 23.3761 17.3371 23.3905 17.316C23.4038 17.2962 23.4193 17.278 23.4369 17.2619C23.4539 17.2467 23.4738 17.2351 23.4953 17.2277C23.5215 17.2192 23.549 17.2153 23.5765 17.2161L25.645 17.2345C25.6672 17.2339 25.6892 17.2389 25.709 17.2489C25.7255 17.2575 25.7384 17.2716 25.7456 17.2887C25.7531 17.3083 25.7549 17.3296 25.7509 17.3502C25.7458 17.3782 25.736 17.4051 25.722 17.4298L22.3277 24.0027L22.3229 23.9941Z" fill="#FF85C6"/>
<g filter="url(#filter2_d_24_1391)">
<path d="M51.2451 21.5681L60.8886 40.404L44.6301 21.5454L51.2451 21.5681Z" fill="#EA6C00"/>
</g>
<g filter="url(#filter3_d_24_1391)">
<path d="M70.4463 21.6332L60.8906 40.4029L76.9011 21.6553L70.4463 21.6332Z" fill="#EA6C00"/>
</g>
<path d="M51.2451 21.5684L70.4423 21.6343L60.8884 40.4042L51.2451 21.5684Z" fill="#FDAD00"/>
<path d="M60.8884 11.1812L51.7546 12.0712L51.2416 21.5683L60.8884 11.1812Z" fill="#FDD231"/>
<path d="M60.8884 11.1812L69.9416 12.215L70.4456 21.6343L60.8884 11.1812Z" fill="#FDD231"/>
<path d="M76.9006 21.6566L69.9451 12.2152L70.4491 21.6344L76.9006 21.6566Z" fill="#FDAD00"/>
<path d="M44.6299 21.5455L51.7547 12.0708L51.2417 21.5684L44.6299 21.5455Z" fill="#FDAD00"/>
<path d="M60.8884 11.1812L51.2451 21.5683L70.4425 21.6343L60.8884 11.1812Z" fill="#FEEEB7"/>
</g>
</g>
</g>
<defs>
<filter id="filter0_d_24_1391" x="0.554075" y="0.54251" width="78.0382" height="50.1885" filterUnits="userSpaceOnUse" color-interpolation-filters="sRGB">
<feFlood flood-opacity="0" result="BackgroundImageFix"/>
<feColorMatrix in="SourceAlpha" type="matrix" values="0 0 0 0 0 0 0 0 0 0 0 0 0 0 0 0 0 0 127 0" result="hardAlpha"/>
<feOffset dy="0.549653"/>
<feGaussianBlur stdDeviation="0.549653"/>
<feColorMatrix type="matrix" values="0 0 0 0 0 0 0 0 0 0 0 0 0 0 0 0 0 0 0.161 0"/>
<feBlend mode="normal" in2="BackgroundImageFix" result="effect1_dropShadow_24_1391"/>
<feBlend mode="normal" in="SourceGraphic" in2="effect1_dropShadow_24_1391" result="shape"/>
</filter>
<filter id="filter1_d_24_1391" x="8.75216" y="9.2095" width="32.968" height="33.0825" filterUnits="userSpaceOnUse" color-interpolation-filters="sRGB">
<feFlood flood-opacity="0" result="BackgroundImageFix"/>
<feColorMatrix in="SourceAlpha" type="matrix" values="0 0 0 0 0 0 0 0 0 0 0 0 0 0 0 0 0 0 127 0" result="hardAlpha"/>
<feOffset dy="0.549653"/>
<feGaussianBlur stdDeviation="0.549653"/>
<feColorMatrix type="matrix" values="0 0 0 0 0 0 0 0 0 0 0 0 0 0 0 0 0 0 0.161 0"/>
<feBlend mode="normal" in2="BackgroundImageFix" result="effect1_dropShadow_24_1391"/>
<feBlend mode="normal" in="SourceGraphic" in2="effect1_dropShadow_24_1391" result="shape"/>
</filter>
<filter id="filter2_d_24_1391" x="43.5308" y="20.9958" width="18.4572" height="21.0573" filterUnits="userSpaceOnUse" color-interpolation-filters="sRGB">
<feFlood flood-opacity="0" result="BackgroundImageFix"/>
<feColorMatrix in="SourceAlpha" type="matrix" values="0 0 0 0 0 0 0 0 0 0 0 0 0 0 0 0 0 0 127 0" result="hardAlpha"/>
<feOffset dy="0.549653"/>
<feGaussianBlur stdDeviation="0.549653"/>
<feColorMatrix type="matrix" values="0 0 0 0 0 0 0 0 0 0 0 0 0 0 0 0 0 0 0.161 0"/>
<feBlend mode="normal" in2="BackgroundImageFix" result="effect1_dropShadow_24_1391"/>
<feBlend mode="normal" in="SourceGraphic" in2="effect1_dropShadow_24_1391" result="shape"/>
</filter>
<filter id="filter3_d_24_1391" x="59.7913" y="21.0835" width="18.2091" height="20.9684" filterUnits="userSpaceOnUse" color-interpolation-filters="sRGB">
<feFlood flood-opacity="0" result="BackgroundImageFix"/>
<feColorMatrix in="SourceAlpha" type="matrix" values="0 0 0 0 0 0 0 0 0 0 0 0 0 0 0 0 0 0 127 0" result="hardAlpha"/>
<feOffset dy="0.549653"/>
<feGaussianBlur stdDeviation="0.549653"/>
<feColorMatrix type="matrix" values="0 0 0 0 0 0 0 0 0 0 0 0 0 0 0 0 0 0 0.161 0"/>
<feBlend mode="normal" in2="BackgroundImageFix" result="effect1_dropShadow_24_1391"/>
<feBlend mode="normal" in="SourceGraphic" in2="effect1_dropShadow_24_1391" result="shape"/>
</filter>
<linearGradient id="paint0_linear_24_1391" x1="41.9236" y1="3.70422" x2="41.9236" y2="46.697" gradientUnits="userSpaceOnUse">
<stop stop-color="#7D56FF"/>
<stop offset="1" stop-color="#3F2B80"/>
</linearGradient>
<clipPath id="clip0_24_1391">
<rect x="0.00500488" y="-0.00500488" width="80" height="61" rx="4" fill="white"/>
</clipPath>
<clipPath id="clip1_24_1391">
<rect width="80" height="61.59" fill="white" transform="translate(0.00500488 -0.00500488)"/>
</clipPath>
<clipPath id="clip2_24_1391">
<rect width="80" height="61.5954" fill="white" transform="translate(0.00500488 -0.00769043)"/>
</clipPath>
</defs>
</svg>
