<svg width="20" height="20" viewBox="0 0 20 20" fill="none" xmlns="http://www.w3.org/2000/svg">
<g clip-path="url(#clip0_24_847)">
<g clip-path="url(#clip1_24_847)">
<path d="M9.88272 10.312C9.74839 10.3696 9.59487 10.3696 9.47973 10.312L1.03613 6.20538V4.95803C1.03613 4.70856 1.24722 4.49747 1.49669 4.49747H17.8466C18.096 4.49747 18.3071 4.70856 18.3071 4.95803V6.22457L9.88272 10.312ZM1.03613 7.35678V15.0712C1.03613 15.3206 1.24722 15.5317 1.49669 15.5317H17.8466C18.096 15.5317 18.3071 15.3206 18.3071 15.0712V7.35678L9.88272 11.4634C9.74839 11.521 9.59487 11.521 9.47973 11.4634L1.03613 7.35678Z" fill="white"/>
</g>
</g>
<defs>
<clipPath id="clip0_24_847">
<rect x="-0.00012207" y="0.410004" width="19.19" height="19.19" rx="4" fill="white"/>
</clipPath>
<clipPath id="clip1_24_847">
<rect width="19.19" height="19.19" fill="white" transform="translate(-0.00012207 0.410004)"/>
</clipPath>
</defs>
</svg>
