<svg width="81" height="62" viewBox="0 0 81 62" fill="none" xmlns="http://www.w3.org/2000/svg">
<g clip-path="url(#clip0_41_3790)">
<g clip-path="url(#clip1_41_3790)">
<g clip-path="url(#clip2_41_3790)">
<path d="M34.7428 48.4329L29.1565 60.3997H30.0927L36.6426 48.5745L34.7428 48.4329Z" fill="#4C4C56"/>
<path opacity="0.1" d="M34.7428 48.4329L29.1565 60.3997H30.0927L36.6426 48.5745L34.7428 48.4329Z" fill="black"/>
<path d="M34.7423 60.3998H29.1563V61.6513L34.7423 61.793V60.3998Z" fill="#4C4C56"/>
<path opacity="0.1" d="M34.7423 60.3998H29.1563V61.6513L34.7423 61.793V60.3998Z" fill="black"/>
<path d="M78.1929 4.3979V46.1856C78.1929 46.5929 78.1127 46.9962 77.9568 47.3725C77.801 47.7487 77.5725 48.0906 77.2846 48.3786C76.9966 48.6666 76.6547 48.895 76.2784 49.0509C75.9021 49.2068 75.4988 49.287 75.0916 49.287H5.43752C5.02757 49.2871 4.62169 49.2055 4.24366 49.0469C3.86562 48.8883 3.52302 48.6559 3.23589 48.3633C2.94876 48.0707 2.72287 47.7237 2.57144 47.3428C2.42 46.9618 2.34607 46.5545 2.35397 46.1446L3.14418 4.32021C3.15987 3.51298 3.4916 2.74411 4.06809 2.17883C4.64457 1.61355 5.4198 1.29697 6.22719 1.29712H75.0914C75.9139 1.29707 76.7027 1.62372 77.2843 2.20522C77.8659 2.78672 78.1928 3.57544 78.1929 4.3979Z" fill="#4C4C56"/>
<g filter="url(#filter0_d_41_3790)">
<path opacity="0.36" d="M78.1929 4.3979V46.1856C78.1929 46.5929 78.1127 46.9962 77.9568 47.3725C77.801 47.7487 77.5725 48.0906 77.2846 48.3786C76.9966 48.6666 76.6547 48.895 76.2784 49.0509C75.9021 49.2068 75.4988 49.287 75.0916 49.287H5.43752C5.02757 49.2871 4.62169 49.2055 4.24366 49.0469C3.86562 48.8883 3.52302 48.6559 3.23589 48.3633C2.94876 48.0707 2.72287 47.7237 2.57144 47.3428C2.42 46.9618 2.34607 46.5545 2.35397 46.1446L3.14418 4.32021C3.15987 3.51298 3.4916 2.74411 4.06809 2.17883C4.64457 1.61355 5.4198 1.29697 6.22719 1.29712H75.0914C75.9139 1.29707 76.7027 1.62372 77.2843 2.20522C77.8659 2.78672 78.1928 3.57544 78.1929 4.3979Z" fill="black"/>
</g>
<path d="M80.7043 4.39795V46.1859C80.7043 47.0084 80.3775 47.7972 79.7959 48.3788C79.2143 48.9605 78.4255 49.2872 77.603 49.2872H7.94965C7.53986 49.2874 7.13414 49.2058 6.7563 49.0472C6.37846 48.8886 6.03609 48.6561 5.74929 48.3634C5.46249 48.0707 5.23703 47.7236 5.08612 47.3426C4.93522 46.9616 4.8619 46.5544 4.87049 46.1446L5.6607 4.32027C5.67638 3.51389 6.00742 2.74576 6.58284 2.18061C7.15826 1.61547 7.93223 1.29832 8.73876 1.29717H77.5843C77.9931 1.29476 78.3984 1.37319 78.7767 1.52797C79.1551 1.68274 79.4992 1.9108 79.7891 2.19903C80.079 2.48725 80.3091 2.82996 80.4661 3.20743C80.6231 3.5849 80.7039 3.98968 80.7039 4.3985L80.7043 4.39795Z" fill="#4C4C56"/>
<path d="M77.9644 7.01051V43.8006C77.9644 44.2079 77.8842 44.6112 77.7284 44.9875C77.5725 45.3637 77.3441 45.7056 77.0561 45.9936C76.7681 46.2816 76.4262 46.51 76.0499 46.6659C75.6737 46.8217 75.2704 46.902 74.8631 46.902H10.3657C9.54819 46.902 8.76412 46.5772 8.18597 45.9992C7.60781 45.4212 7.28291 44.6372 7.28271 43.8197V6.98724C7.28403 6.17043 7.60942 5.38752 8.18745 4.81042C8.76549 4.23331 9.54892 3.90918 10.3657 3.90918H74.8629C75.2702 3.90916 75.6735 3.98936 76.0498 4.1452C76.4261 4.30105 76.768 4.52949 77.056 4.81747C77.344 5.10546 77.5725 5.44735 77.7284 5.82363C77.8842 6.19992 77.9644 6.60322 77.9644 7.01051Z" fill="url(#paint0_linear_41_3790)"/>
<path d="M50.0571 48.602L43.9321 60.3997H30.0926L37.0124 46.9028L50.0571 48.602Z" fill="#4C4C56"/>
<path d="M54.9352 60.3998L55.9583 61.6513H34.7424V60.3998H54.9352Z" fill="#4C4C56"/>
<path d="M11.8683 11.3104L40.0728 11.7335V39.0862L11.8683 39.5087V11.3104Z" fill="black"/>
<g filter="url(#filter1_d_41_3790)">
<path d="M10.5515 9.96411V40.848L41.3209 40.3431V10.4691L10.5515 9.96411ZM11.8749 11.3053L40.0791 11.7285V39.0853L11.8679 39.5087L11.8749 11.3053Z" fill="#FF7BBC"/>
</g>
<path d="M33.0988 23.0012C32.8673 22.9035 32.617 22.8583 32.3659 22.8691C31.9913 22.8638 31.62 22.9407 31.2782 23.0942C30.9512 23.2454 30.6634 23.47 30.4374 23.7505C30.1904 24.0613 30.0062 24.4172 29.8953 24.7983C29.7626 25.2526 29.6979 25.724 29.7032 26.1972C29.6945 26.7122 29.7594 27.2258 29.8958 27.7225C29.9991 28.1001 30.1801 28.4519 30.4271 28.7555C30.6417 29.012 30.9151 29.2127 31.2241 29.3405C31.5385 29.4665 31.8749 29.5282 32.2135 29.5222C32.2879 29.5242 32.3621 29.5226 32.4361 29.5173C32.5101 29.5121 32.5834 29.5034 32.656 29.4913C32.7293 29.4791 32.8016 29.4634 32.8731 29.4442C32.9445 29.425 33.0153 29.4024 33.0854 29.3764V23.0012H33.0988ZM27.4031 26.3044C27.3981 25.585 27.5159 24.8699 27.7512 24.1901C27.9692 23.5616 28.3095 22.9825 28.7523 22.4861C29.1924 21.9978 29.7335 21.6113 30.3381 21.3533C31.0026 21.0755 31.7174 20.9378 32.4376 20.9489C32.4924 20.948 32.5474 20.948 32.6025 20.9489C32.6576 20.9499 32.7125 20.9516 32.7674 20.9539C32.8221 20.9565 32.8768 20.9599 32.9314 20.9642C32.986 20.9684 33.0405 20.9736 33.095 20.9795V17.6305C33.095 17.6131 33.0984 17.596 33.105 17.5799C33.1114 17.5646 33.1207 17.5507 33.1323 17.5389C33.1439 17.5272 33.1577 17.5178 33.1728 17.5114C33.1885 17.5048 33.2054 17.5015 33.2225 17.5017L35.2483 17.5191C35.2692 17.5188 35.2899 17.5214 35.3101 17.5268C35.3243 17.5306 35.3375 17.5377 35.3484 17.5477C35.3577 17.5568 35.3644 17.5682 35.368 17.5807C35.3719 17.5949 35.3738 17.6095 35.3735 17.6243V29.366C35.3716 29.4711 35.3716 29.5763 35.3735 29.6815C35.3753 29.7866 35.3788 29.8917 35.3839 29.9966C35.3892 30.1015 35.3962 30.2064 35.4052 30.3112C35.4141 30.416 35.4247 30.5205 35.437 30.6249C35.437 30.6474 35.437 30.6653 35.4359 30.6798C35.4355 30.6921 35.4327 30.7043 35.4277 30.7155C35.4225 30.7259 35.4148 30.7347 35.4053 30.7414C35.3916 30.7511 35.3771 30.7596 35.3619 30.7668C34.3575 31.2627 33.2538 31.5248 32.1336 31.5334C31.4875 31.5459 30.8446 31.4404 30.2364 31.222C29.6707 31.0149 29.159 30.683 28.7393 30.2509C28.2964 29.7833 27.9612 29.2244 27.7573 28.6135C27.5116 27.8691 27.3924 27.0888 27.4048 26.3049L27.4031 26.3044ZM23.0229 24.199L26.6267 31.2417C26.6415 31.2647 26.6516 31.2905 26.6563 31.3174C26.6602 31.3396 26.6583 31.3625 26.6508 31.3837C26.6439 31.4029 26.6311 31.4194 26.6142 31.4308C26.5951 31.4432 26.5728 31.4495 26.5501 31.4492L24.3168 31.4638C24.2738 31.4695 24.2301 31.4639 24.19 31.4475C24.1498 31.4311 24.1147 31.4045 24.088 31.3704C24.0698 31.3471 24.0559 31.3209 24.0468 31.2929C23.8407 30.8654 23.6334 30.4331 23.4249 29.9961C23.2164 29.559 23.0068 29.118 22.7959 28.673C22.585 28.2276 22.3729 27.7778 22.1596 27.3238C21.9464 26.8698 21.7318 26.4113 21.516 25.9484H21.4901C21.2958 26.3856 21.0966 26.8326 20.894 27.2844C20.6913 27.7362 20.4854 28.193 20.2776 28.6489C20.0698 29.1047 19.8604 29.5602 19.6508 30.0094C19.4412 30.4587 19.2314 30.9019 19.0231 31.3334C19.0076 31.3665 18.9851 31.396 18.9571 31.4196C18.9291 31.4432 18.8963 31.4605 18.861 31.4702C18.8371 31.4768 18.8124 31.4797 18.7877 31.479L16.6213 31.4928C16.5948 31.494 16.5684 31.488 16.5451 31.4754C16.5276 31.4656 16.5145 31.4495 16.5085 31.4305C16.5027 31.411 16.5027 31.3902 16.5085 31.3707C16.5151 31.348 16.5264 31.3268 16.5416 31.3086L20.1145 24.4035L16.6613 17.5506C16.6451 17.5335 16.6344 17.5119 16.6307 17.4887C16.6269 17.4655 16.6302 17.4418 16.6402 17.4205C16.6501 17.3994 16.6663 17.3817 16.6864 17.37C16.7066 17.3582 16.7299 17.3528 16.7532 17.3546L18.9969 17.374C19.0256 17.3738 19.0543 17.376 19.0827 17.3806C19.1055 17.3842 19.1276 17.3918 19.1479 17.4029C19.167 17.414 19.1834 17.4291 19.1959 17.4473C19.211 17.4698 19.2225 17.4945 19.2302 17.5206C19.4352 17.9563 19.6407 18.3908 19.8465 18.8242C20.0523 19.2575 20.257 19.6908 20.4606 20.1241C20.6643 20.5573 20.8662 20.9914 21.0665 21.4262C21.2669 21.8611 21.4641 22.2977 21.6582 22.7362H21.684C21.8714 22.3063 22.0628 21.8757 22.2582 21.4444C22.4536 21.0131 22.6511 20.5825 22.8507 20.1527C23.0499 19.7229 23.2498 19.2942 23.4502 18.8667C23.6506 18.4392 23.8492 18.0143 24.0458 17.592C24.0616 17.5658 24.0761 17.542 24.0906 17.5209C24.1038 17.5011 24.1193 17.483 24.1369 17.4669C24.1539 17.4517 24.1738 17.44 24.1954 17.4326C24.2216 17.4242 24.249 17.4203 24.2765 17.4211L26.345 17.4394C26.3672 17.4389 26.3892 17.4439 26.409 17.4539C26.4255 17.4625 26.4384 17.4765 26.4456 17.4936C26.4531 17.5133 26.4549 17.5346 26.4509 17.5552C26.4458 17.5831 26.436 17.61 26.422 17.6347L23.0277 24.2077L23.0229 24.199Z" fill="#FF85C6"/>
<g filter="url(#filter2_d_41_3790)">
<path d="M51.9452 21.7731L61.5886 40.609L45.3301 21.7504L51.9452 21.7731Z" fill="#EA6C00"/>
</g>
<g filter="url(#filter3_d_41_3790)">
<path d="M71.1464 21.8381L61.5906 40.6079L77.6011 21.8603L71.1464 21.8381Z" fill="#EA6C00"/>
</g>
<path d="M51.9451 21.7733L71.1423 21.8393L61.5884 40.6092L51.9451 21.7733Z" fill="#FDAD00"/>
<path d="M61.5884 11.3861L52.4547 12.2762L51.9417 21.7733L61.5884 11.3861Z" fill="#FDD231"/>
<path d="M61.5884 11.3861L70.6416 12.42L71.1456 21.8392L61.5884 11.3861Z" fill="#FDD231"/>
<path d="M77.6006 21.8616L70.6451 12.4202L71.1491 21.8394L77.6006 21.8616Z" fill="#FDAD00"/>
<path d="M45.3299 21.7505L52.4547 12.2758L51.9417 21.7734L45.3299 21.7505Z" fill="#FDAD00"/>
<path d="M61.5884 11.3861L51.9451 21.7733L71.1425 21.8392L61.5884 11.3861Z" fill="#FEEEB7"/>
</g>
</g>
</g>
<defs>
<filter id="filter0_d_41_3790" x="1.25409" y="0.747466" width="78.0382" height="50.1885" filterUnits="userSpaceOnUse" color-interpolation-filters="sRGB">
<feFlood flood-opacity="0" result="BackgroundImageFix"/>
<feColorMatrix in="SourceAlpha" type="matrix" values="0 0 0 0 0 0 0 0 0 0 0 0 0 0 0 0 0 0 127 0" result="hardAlpha"/>
<feOffset dy="0.549653"/>
<feGaussianBlur stdDeviation="0.549653"/>
<feColorMatrix type="matrix" values="0 0 0 0 0 0 0 0 0 0 0 0 0 0 0 0 0 0 0.161 0"/>
<feBlend mode="normal" in2="BackgroundImageFix" result="effect1_dropShadow_41_3790"/>
<feBlend mode="normal" in="SourceGraphic" in2="effect1_dropShadow_41_3790" result="shape"/>
</filter>
<filter id="filter1_d_41_3790" x="9.45221" y="9.41446" width="32.968" height="33.0825" filterUnits="userSpaceOnUse" color-interpolation-filters="sRGB">
<feFlood flood-opacity="0" result="BackgroundImageFix"/>
<feColorMatrix in="SourceAlpha" type="matrix" values="0 0 0 0 0 0 0 0 0 0 0 0 0 0 0 0 0 0 127 0" result="hardAlpha"/>
<feOffset dy="0.549653"/>
<feGaussianBlur stdDeviation="0.549653"/>
<feColorMatrix type="matrix" values="0 0 0 0 0 0 0 0 0 0 0 0 0 0 0 0 0 0 0.161 0"/>
<feBlend mode="normal" in2="BackgroundImageFix" result="effect1_dropShadow_41_3790"/>
<feBlend mode="normal" in="SourceGraphic" in2="effect1_dropShadow_41_3790" result="shape"/>
</filter>
<filter id="filter2_d_41_3790" x="44.2308" y="21.2007" width="18.4572" height="21.0573" filterUnits="userSpaceOnUse" color-interpolation-filters="sRGB">
<feFlood flood-opacity="0" result="BackgroundImageFix"/>
<feColorMatrix in="SourceAlpha" type="matrix" values="0 0 0 0 0 0 0 0 0 0 0 0 0 0 0 0 0 0 127 0" result="hardAlpha"/>
<feOffset dy="0.549653"/>
<feGaussianBlur stdDeviation="0.549653"/>
<feColorMatrix type="matrix" values="0 0 0 0 0 0 0 0 0 0 0 0 0 0 0 0 0 0 0.161 0"/>
<feBlend mode="normal" in2="BackgroundImageFix" result="effect1_dropShadow_41_3790"/>
<feBlend mode="normal" in="SourceGraphic" in2="effect1_dropShadow_41_3790" result="shape"/>
</filter>
<filter id="filter3_d_41_3790" x="60.4913" y="21.2885" width="18.2091" height="20.9684" filterUnits="userSpaceOnUse" color-interpolation-filters="sRGB">
<feFlood flood-opacity="0" result="BackgroundImageFix"/>
<feColorMatrix in="SourceAlpha" type="matrix" values="0 0 0 0 0 0 0 0 0 0 0 0 0 0 0 0 0 0 127 0" result="hardAlpha"/>
<feOffset dy="0.549653"/>
<feGaussianBlur stdDeviation="0.549653"/>
<feColorMatrix type="matrix" values="0 0 0 0 0 0 0 0 0 0 0 0 0 0 0 0 0 0 0.161 0"/>
<feBlend mode="normal" in2="BackgroundImageFix" result="effect1_dropShadow_41_3790"/>
<feBlend mode="normal" in="SourceGraphic" in2="effect1_dropShadow_41_3790" result="shape"/>
</filter>
<linearGradient id="paint0_linear_41_3790" x1="42.6236" y1="3.90918" x2="42.6236" y2="46.902" gradientUnits="userSpaceOnUse">
<stop stop-color="#7D56FF"/>
<stop offset="1" stop-color="#3F2B80"/>
</linearGradient>
<clipPath id="clip0_41_3790">
<rect x="0.705017" y="0.199951" width="80" height="61.59" rx="4" fill="white"/>
</clipPath>
<clipPath id="clip1_41_3790">
<rect width="80" height="61.59" fill="white" transform="translate(0.705017 0.199951)"/>
</clipPath>
<clipPath id="clip2_41_3790">
<rect width="80" height="61.5954" fill="white" transform="translate(0.705017 0.197266)"/>
</clipPath>
</defs>
</svg>
