<svg width="17" height="16" viewBox="0 0 17 16" fill="none" xmlns="http://www.w3.org/2000/svg">
<g clip-path="url(#clip0_24_835)">
<g clip-path="url(#clip1_24_835)">
<g clip-path="url(#clip2_24_835)">
<path d="M0.589844 2.13119C0.589844 1.61663 0.770324 1.19167 1.13064 0.856954C1.49096 0.522234 1.95944 0.355194 2.53608 0.355194C3.10248 0.355194 3.56072 0.519674 3.9108 0.849274C4.27112 1.18911 4.4516 1.63199 4.4516 2.17727C4.4516 2.67135 4.27688 3.08351 3.9268 3.41311C3.56648 3.75295 3.09288 3.92255 2.506 3.92255H2.49064C1.92424 3.92255 1.466 3.75295 1.11592 3.41311C0.765844 3.07327 0.589844 2.64575 0.589844 2.13119ZM0.790804 15.6448V5.32799H4.21928V15.6448H0.790804ZM6.1188 15.6448H9.54728V9.88415C9.54728 9.52383 9.58824 9.24607 9.6708 9.05023C9.8148 8.70015 10.0337 8.40383 10.3274 8.16191C10.6206 7.91999 10.9892 7.79903 11.4314 7.79903C12.5847 7.79903 13.1614 8.57663 13.1614 10.1312V15.6448H16.5898V9.72991C16.5898 8.20607 16.2295 7.05023 15.5089 6.26303C14.7882 5.47519 13.8359 5.08159 12.6519 5.08159C11.3239 5.08159 10.289 5.65311 9.54792 6.79615V6.82687H9.53256L9.54792 6.79615V5.32799H6.1188C6.13928 5.65759 6.14952 6.68159 6.14952 8.40127C6.14952 10.121 6.13928 12.5357 6.1188 15.6448Z" fill="white"/>
</g>
</g>
</g>
<defs>
<clipPath id="clip0_24_835">
<rect width="16" height="15.28" fill="white" transform="translate(0.589844 0.360001)"/>
</clipPath>
<clipPath id="clip1_24_835">
<rect width="16" height="15.28" fill="white" transform="translate(0.589844 0.360001)"/>
</clipPath>
<clipPath id="clip2_24_835">
<rect width="16" height="15.2896" fill="white" transform="translate(0.589844 0.355194)"/>
</clipPath>
</defs>
</svg>
