<svg width="81" height="84" viewBox="0 0 81 84" fill="none" xmlns="http://www.w3.org/2000/svg">
<g clip-path="url(#clip0_24_1006)">
<g clip-path="url(#clip1_24_1006)">
<g clip-path="url(#clip2_24_1006)">
<g opacity="0.7">
<path d="M66.8415 40.2718L40.4513 33.9165V83.6571L66.8415 76.7492V40.2718Z" fill="url(#paint0_linear_24_1006)"/>
<g opacity="0.1">
<path d="M66.8415 40.2718L40.4513 33.9165V83.6571L66.8415 76.7492V40.2718Z" fill="url(#paint1_linear_24_1006)"/>
</g>
<path d="M14.0601 40.2718L40.4513 33.9165V83.6571L14.0601 76.8865V40.2718Z" fill="url(#paint2_linear_24_1006)"/>
<g opacity="0.17">
<path d="M14.0601 40.2718L40.4513 33.9165V83.6571L14.0601 76.8865V40.2718Z" fill="url(#paint3_linear_24_1006)"/>
</g>
<path d="M40.4513 33.9165L54.1298 22.5868L80.52 29.3574L66.8415 40.2718L40.4513 33.9165Z" fill="url(#paint4_linear_24_1006)"/>
<path d="M0.519989 29.4947L14.06 40.2718L40.4513 33.9165L27.0486 22.5868L0.519989 29.4947Z" fill="url(#paint5_linear_24_1006)"/>
<g opacity="0.05">
<path d="M0.519989 29.4947L14.06 40.2718L40.4513 33.9165L27.0486 22.5868L0.519989 29.4947Z" fill="url(#paint6_linear_24_1006)"/>
</g>
<g opacity="0.5">
<path d="M39.975 28.1672H21.3679C21.0971 28.1672 20.8775 28.3868 20.8775 28.6577V45.7498C20.8775 46.0207 21.0971 46.2403 21.3679 46.2403H39.975C40.2459 46.2403 40.4655 46.0207 40.4655 45.7498V28.6577C40.4655 28.3868 40.2459 28.1672 39.975 28.1672Z" fill="url(#paint7_linear_24_1006)"/>
</g>
<path d="M39.7625 28.3066H21.6066C21.3358 28.3066 21.1162 28.5262 21.1162 28.7971V45.4511C21.1162 45.7219 21.3358 45.9415 21.6066 45.9415H39.7625C40.0334 45.9415 40.253 45.7219 40.253 45.4511V28.7971C40.253 28.5262 40.0334 28.3066 39.7625 28.3066Z" fill="url(#paint8_linear_24_1006)"/>
<path d="M25.3276 31.2113H23.0813C22.8104 31.2113 22.5908 31.4309 22.5908 31.7018V33.6255C22.5908 33.8963 22.8104 34.1159 23.0813 34.1159H25.3276C25.5985 34.1159 25.8181 33.8963 25.8181 33.6255V31.7018C25.8181 31.4309 25.5985 31.2113 25.3276 31.2113Z" fill="url(#paint9_linear_24_1006)"/>
<path d="M39.5282 31.2113H26.8731C26.825 31.2113 26.7859 31.2503 26.7859 31.2985V31.4467C26.7859 31.4949 26.825 31.5339 26.8731 31.5339H39.5282C39.5763 31.5339 39.6153 31.4949 39.6153 31.4467V31.2985C39.6153 31.2503 39.5763 31.2113 39.5282 31.2113Z" fill="url(#paint10_linear_24_1006)"/>
<path d="M39.5282 32.1792H26.8731C26.825 32.1792 26.7859 32.2182 26.7859 32.2664V32.4146C26.7859 32.4628 26.825 32.5018 26.8731 32.5018H39.5282C39.5763 32.5018 39.6153 32.4628 39.6153 32.4146V32.2664C39.6153 32.2182 39.5763 32.1792 39.5282 32.1792Z" fill="url(#paint11_linear_24_1006)"/>
<path d="M39.5282 35.6942H22.3554C22.3073 35.6942 22.2682 35.7333 22.2682 35.7814V35.9296C22.2682 35.9778 22.3073 36.0168 22.3554 36.0168H39.5282C39.5763 36.0168 39.6154 35.9778 39.6154 35.9296V35.7814C39.6154 35.7333 39.5763 35.6942 39.5282 35.6942Z" fill="url(#paint12_linear_24_1006)"/>
<path d="M39.5282 36.662H22.3554C22.3073 36.662 22.2682 36.701 22.2682 36.7492V36.8974C22.2682 36.9456 22.3073 36.9846 22.3554 36.9846H39.5282C39.5763 36.9846 39.6154 36.9456 39.6154 36.8974V36.7492C39.6154 36.701 39.5763 36.662 39.5282 36.662Z" fill="url(#paint13_linear_24_1006)"/>
<path d="M39.5282 37.9525H22.3554C22.3073 37.9525 22.2682 37.9916 22.2682 38.0397V38.1879C22.2682 38.2361 22.3073 38.2751 22.3554 38.2751H39.5282C39.5763 38.2751 39.6154 38.2361 39.6154 38.1879V38.0397C39.6154 37.9916 39.5763 37.9525 39.5282 37.9525Z" fill="url(#paint14_linear_24_1006)"/>
<path d="M32.1854 38.9214H22.3554C22.3073 38.9214 22.2682 38.9604 22.2682 39.0086V39.1568C22.2682 39.205 22.3073 39.244 22.3554 39.244H32.1854C32.2335 39.244 32.2726 39.205 32.2726 39.1568V39.0086C32.2726 38.9604 32.2335 38.9214 32.1854 38.9214Z" fill="url(#paint15_linear_24_1006)"/>
<path d="M39.5282 40.2086H22.3554C22.3073 40.2086 22.2682 40.2477 22.2682 40.2958V40.444C22.2682 40.4922 22.3073 40.5312 22.3554 40.5312H39.5282C39.5763 40.5312 39.6154 40.4922 39.6154 40.444V40.2958C39.6154 40.2477 39.5763 40.2086 39.5282 40.2086Z" fill="url(#paint16_linear_24_1006)"/>
<path d="M39.5282 41.1764H22.3554C22.3073 41.1764 22.2682 41.2154 22.2682 41.2636V41.4118C22.2682 41.46 22.3073 41.499 22.3554 41.499H39.5282C39.5763 41.499 39.6154 41.46 39.6154 41.4118V41.2636C39.6154 41.2154 39.5763 41.1764 39.5282 41.1764Z" fill="url(#paint17_linear_24_1006)"/>
<path d="M39.5282 42.468H22.3554C22.3073 42.468 22.2682 42.5071 22.2682 42.5552V42.7034C22.2682 42.7516 22.3073 42.7906 22.3554 42.7906H39.5282C39.5763 42.7906 39.6154 42.7516 39.6154 42.7034V42.5552C39.6154 42.5071 39.5763 42.468 39.5282 42.468Z" fill="url(#paint18_linear_24_1006)"/>
<path d="M32.1854 43.4358H22.3554C22.3073 43.4358 22.2682 43.4748 22.2682 43.523V43.6712C22.2682 43.7194 22.3073 43.7584 22.3554 43.7584H32.1854C32.2335 43.7584 32.2726 43.7194 32.2726 43.6712V43.523C32.2726 43.4748 32.2335 43.4358 32.1854 43.4358Z" fill="url(#paint19_linear_24_1006)"/>
<g opacity="0.5">
<path d="M42.9309 32.3427H24.3238C24.0529 32.3427 23.8333 32.5622 23.8333 32.8331V49.9252C23.8333 50.1961 24.0529 50.4157 24.3238 50.4157H42.9309C43.2018 50.4157 43.4214 50.1961 43.4214 49.9252V32.8331C43.4214 32.5622 43.2018 32.3427 42.9309 32.3427Z" fill="url(#paint20_linear_24_1006)"/>
</g>
<path d="M42.7183 32.4833H24.5625C24.2916 32.4833 24.072 32.7029 24.072 32.9737V49.6277C24.072 49.8986 24.2916 50.1182 24.5625 50.1182H42.7183C42.9892 50.1182 43.2088 49.8986 43.2088 49.6277V32.9737C43.2088 32.7029 42.9892 32.4833 42.7183 32.4833Z" fill="url(#paint21_linear_24_1006)"/>
<path d="M28.2835 35.3879H26.0372C25.7663 35.3879 25.5467 35.6075 25.5467 35.8784V37.8021C25.5467 38.073 25.7663 38.2926 26.0372 38.2926H28.2835C28.5544 38.2926 28.7739 38.073 28.7739 37.8021V35.8784C28.7739 35.6075 28.5544 35.3879 28.2835 35.3879Z" fill="url(#paint22_linear_24_1006)"/>
<path d="M42.4851 35.3879H29.8301C29.7819 35.3879 29.7429 35.427 29.7429 35.4751V35.6234C29.7429 35.6715 29.7819 35.7106 29.8301 35.7106H42.4851C42.5333 35.7106 42.5723 35.6715 42.5723 35.6234V35.4751C42.5723 35.427 42.5333 35.3879 42.4851 35.3879Z" fill="url(#paint23_linear_24_1006)"/>
<path d="M42.4851 36.3557H29.8301C29.7819 36.3557 29.7429 36.3947 29.7429 36.4429V36.5911C29.7429 36.6393 29.7819 36.6783 29.8301 36.6783H42.4851C42.5333 36.6783 42.5723 36.6393 42.5723 36.5911V36.4429C42.5723 36.3947 42.5333 36.3557 42.4851 36.3557Z" fill="url(#paint24_linear_24_1006)"/>
<path d="M42.484 39.8696H25.3113C25.2631 39.8696 25.2241 39.9087 25.2241 39.9568V40.1051C25.2241 40.1532 25.2631 40.1922 25.3113 40.1922H42.484C42.5322 40.1922 42.5712 40.1532 42.5712 40.1051V39.9568C42.5712 39.9087 42.5322 39.8696 42.484 39.8696Z" fill="url(#paint25_linear_24_1006)"/>
<path d="M42.484 40.8386H25.3113C25.2631 40.8386 25.2241 40.8777 25.2241 40.9258V41.074C25.2241 41.1222 25.2631 41.1612 25.3113 41.1612H42.484C42.5322 41.1612 42.5712 41.1222 42.5712 41.074V40.9258C42.5712 40.8777 42.5322 40.8386 42.484 40.8386Z" fill="url(#paint26_linear_24_1006)"/>
<path d="M42.484 42.129H25.3113C25.2631 42.129 25.2241 42.1681 25.2241 42.2162V42.3645C25.2241 42.4126 25.2631 42.4516 25.3113 42.4516H42.484C42.5322 42.4516 42.5712 42.4126 42.5712 42.3645V42.2162C42.5712 42.1681 42.5322 42.129 42.484 42.129Z" fill="url(#paint27_linear_24_1006)"/>
<path d="M35.1413 43.0969H25.3113C25.2631 43.0969 25.2241 43.136 25.2241 43.1841V43.3323C25.2241 43.3805 25.2631 43.4195 25.3113 43.4195H35.1413C35.1894 43.4195 35.2285 43.3805 35.2285 43.3323V43.1841C35.2285 43.136 35.1894 43.0969 35.1413 43.0969Z" fill="url(#paint28_linear_24_1006)"/>
<path d="M42.484 44.3851H25.3113C25.2631 44.3851 25.2241 44.4242 25.2241 44.4723V44.6206C25.2241 44.6687 25.2631 44.7078 25.3113 44.7078H42.484C42.5322 44.7078 42.5712 44.6687 42.5712 44.6206V44.4723C42.5712 44.4242 42.5322 44.3851 42.484 44.3851Z" fill="url(#paint29_linear_24_1006)"/>
<path d="M42.484 45.353H25.3113C25.2631 45.353 25.2241 45.3921 25.2241 45.4402V45.5885C25.2241 45.6366 25.2631 45.6756 25.3113 45.6756H42.484C42.5322 45.6756 42.5712 45.6366 42.5712 45.5885V45.4402C42.5712 45.3921 42.5322 45.353 42.484 45.353Z" fill="url(#paint30_linear_24_1006)"/>
<path d="M42.484 46.6445H25.3113C25.2631 46.6445 25.2241 46.6836 25.2241 46.7317V46.88C25.2241 46.9281 25.2631 46.9671 25.3113 46.9671H42.484C42.5322 46.9671 42.5712 46.9281 42.5712 46.88V46.7317C42.5712 46.6836 42.5322 46.6445 42.484 46.6445Z" fill="url(#paint31_linear_24_1006)"/>
<path d="M35.1413 47.6124H25.3113C25.2631 47.6124 25.2241 47.6515 25.2241 47.6996V47.8478C25.2241 47.896 25.2631 47.935 25.3113 47.935H35.1413C35.1894 47.935 35.2285 47.896 35.2285 47.8478V47.6996C35.2285 47.6515 35.1894 47.6124 35.1413 47.6124Z" fill="url(#paint32_linear_24_1006)"/>
<g opacity="0.5">
<path d="M52.1963 34.6816H35.2241V54.6228H52.1963V34.6816Z" fill="url(#paint33_linear_24_1006)"/>
</g>
<path d="M51.8355 35.0032H35.7462V54.1825H51.8355V35.0032Z" fill="url(#paint34_linear_24_1006)"/>
<g opacity="0.5">
<path d="M44.6671 38.0528V37.571H42.9178V38.0528H41.6873V40.419H45.8944V38.0528H44.6671ZM43.1358 37.7443H44.4437V38.0506H43.1358V37.7443Z" fill="url(#paint35_linear_24_1006)"/>
</g>
<path d="M45.7167 38.1323H41.865V40.2991H45.7167V38.1323Z" fill="url(#paint36_linear_24_1006)"/>
<path d="M42.9886 37.6909V38.2533H43.1892V37.8522H44.3925V38.2533H44.593V37.6909H42.9886Z" fill="url(#paint37_linear_24_1006)"/>
<path d="M49.4682 43.4174H38.1538V43.8991H49.4682V43.4174Z" fill="url(#paint38_linear_24_1006)"/>
<path d="M49.4682 46.5868H38.1538V47.0685H49.4682V46.5868Z" fill="url(#paint39_linear_24_1006)"/>
<path d="M49.4682 47.4293H38.1538V47.9111H49.4682V47.4293Z" fill="url(#paint40_linear_24_1006)"/>
<path d="M42.9287 45.7443H38.1538V46.226H42.9287V45.7443Z" fill="url(#paint41_linear_24_1006)"/>
<g opacity="0.6">
<path d="M49.4682 45.7443H45.8976V46.226H49.4682V45.7443Z" fill="url(#paint42_linear_24_1006)"/>
</g>
<path d="M45.696 49.3955H42.1254V49.8773H45.696V49.3955Z" fill="url(#paint43_linear_24_1006)"/>
<path d="M14.0601 40.2719V76.8866L40.4513 83.6571V47.3193L14.0601 40.2719Z" fill="url(#paint44_linear_24_1006)"/>
<path d="M66.8415 76.7492L40.4513 83.6571V47.3193L66.8415 40.2719V76.7492Z" fill="url(#paint45_linear_24_1006)"/>
<g opacity="0.07">
<path d="M66.8415 76.7492L40.4513 83.6571V47.3193L66.8415 40.2719V76.7492Z" fill="url(#paint46_linear_24_1006)"/>
</g>
<g opacity="0.07">
<path d="M56.3401 64.5901V76.6108L66.8415 73.7094V61.6887L56.3401 64.5901Z" fill="url(#paint47_linear_24_1006)"/>
</g>
<path d="M60.8132 37.2179H53.0301V44.6958H60.8132V37.2179Z" fill="url(#paint48_linear_24_1006)"/>
<path d="M60.6911 37.401H53.1521V44.5432H60.6911V37.401Z" fill="url(#paint49_linear_24_1006)"/>
<g opacity="0.5">
<path d="M57.5881 38.6533V38.2893H56.2551V38.6555H55.3211V40.4561H58.5222V38.6533H57.5881ZM56.4219 38.4201H57.4224V38.6533H56.4219V38.4201Z" fill="url(#paint50_linear_24_1006)"/>
</g>
<g opacity="0.6">
<path d="M58.3859 38.7144H55.4562V40.3623H58.3859V38.7144Z" fill="url(#paint51_linear_24_1006)"/>
</g>
<g opacity="0.6">
<path d="M56.3107 38.3776V38.8059H56.4644V38.5007H57.3799V38.8059H57.5325V38.3776H56.3107Z" fill="url(#paint52_linear_24_1006)"/>
</g>
<g opacity="0.6">
<path d="M58.3402 41.644H55.6241V42.0103H58.3402V41.644Z" fill="url(#paint53_linear_24_1006)"/>
</g>
<path d="M59.2415 42.3154H54.6017V42.6816H59.2415V42.3154Z" fill="url(#paint54_linear_24_1006)"/>
<g opacity="0.5">
<path d="M44.6628 14.359H34.5789V22.6424H44.6628V14.359Z" fill="url(#paint55_linear_24_1006)"/>
</g>
<path d="M44.5265 14.516H34.6966V22.5051H44.5265V14.516Z" fill="url(#paint56_linear_24_1006)"/>
<path d="M44.5265 14.516H34.6966V16.298H44.5265V14.516Z" fill="url(#paint57_linear_24_1006)"/>
<g opacity="0.1">
<path d="M44.5265 14.516H34.6966V16.298H44.5265V14.516Z" fill="url(#paint58_linear_24_1006)"/>
</g>
<path d="M43.744 16.9443H35.4802V17.9819H43.744V16.9443Z" fill="url(#paint59_linear_24_1006)"/>
<path d="M41.5118 18.7655H35.4802V19.1175H41.5118V18.7655Z" fill="url(#paint60_linear_24_1006)"/>
<path d="M39.3963 19.3727H35.4802V19.7247H39.3963V19.3727Z" fill="url(#paint61_linear_24_1006)"/>
<path d="M40.6497 19.9797H35.4802V20.3318H40.6497V19.9797Z" fill="url(#paint62_linear_24_1006)"/>
<path d="M41.5118 20.5857H35.4802V20.9377H41.5118V20.5857Z" fill="url(#paint63_linear_24_1006)"/>
<path d="M37.4966 21.1927H35.4802V21.5448H37.4966V21.1927Z" fill="url(#paint64_linear_24_1006)"/>
<g opacity="0.5">
<path d="M61.9042 20.5792H49.405V30.8452H61.9042V20.5792Z" fill="url(#paint65_linear_24_1006)"/>
</g>
<path d="M61.7353 20.7732H49.5511V30.6751H61.7353V20.7732Z" fill="url(#paint66_linear_24_1006)"/>
<path d="M61.7353 20.7732H49.5511V22.9814H61.7353V20.7732Z" fill="url(#paint67_linear_24_1006)"/>
<path d="M60.763 23.7825H50.5211V25.0686H60.763V23.7825Z" fill="url(#paint68_linear_24_1006)"/>
<path d="M57.9968 26.0397H50.5211V26.4767H57.9968V26.0397Z" fill="url(#paint69_linear_24_1006)"/>
<path d="M55.3756 26.7917H50.5211V27.2288H55.3756V26.7917Z" fill="url(#paint70_linear_24_1006)"/>
<path d="M56.9287 27.5448H50.5211V27.9819H56.9287V27.5448Z" fill="url(#paint71_linear_24_1006)"/>
<path d="M57.9968 28.2969H50.5211V28.7339H57.9968V28.2969Z" fill="url(#paint72_linear_24_1006)"/>
<path d="M53.0214 29.049H50.5211V29.486H53.0214V29.049Z" fill="url(#paint73_linear_24_1006)"/>
<path d="M53.9674 24.2195H51.0551V24.6075H53.9674V24.2195Z" fill="url(#paint74_linear_24_1006)"/>
<g opacity="0.1">
<path d="M13.7156 59.2702L28.4993 63.001L40.3816 53.329V47.3879L13.9914 40.7557L13.7156 59.2702Z" fill="url(#paint75_linear_24_1006)"/>
</g>
<g opacity="0.1">
<path d="M67.0486 59.2702L52.2638 63.001L40.3816 53.329V47.3879L66.7718 40.7557L67.0486 59.2702Z" fill="url(#paint76_linear_24_1006)"/>
</g>
<path d="M14.06 40.2719L0.519989 51.4642L26.9102 58.0964L40.4513 47.3193L14.06 40.2719Z" fill="url(#paint77_linear_24_1006)"/>
<path d="M66.8415 40.2719L80.52 51.4642L54.2682 58.0964L40.4513 47.3193L66.8415 40.2719Z" fill="url(#paint78_linear_24_1006)"/>
<g opacity="0.07">
<path d="M66.8415 40.2719L80.52 51.4642L54.2682 58.0964L40.4513 47.3193L66.8415 40.2719Z" fill="url(#paint79_linear_24_1006)"/>
</g>
</g>
<path d="M66.8895 39.9362L40.7249 33.6343V82.9498L66.8895 76.1008V39.9362Z" fill="#535461"/>
<path opacity="0.1" d="M66.8895 39.9362L40.7249 33.6343V82.9498L66.8895 76.1008V39.9362Z" fill="black"/>
<path d="M14.5614 39.9362L40.7249 33.6343V82.9498L14.5614 76.237V39.9362Z" fill="#535461"/>
<path opacity="0.17" d="M14.5614 39.7182L40.7249 33.4163V82.9498L14.5614 76.237V39.7182Z" fill="black"/>
<path d="M40.5069 33.8523L54.2867 22.4016L80.4513 29.1144L66.6715 40.1542L40.5069 33.8523Z" fill="#535461"/>
<path d="M1.35486 29.4686L14.7794 40.1541L40.9429 33.8522L27.6557 22.6195L1.35486 29.4686Z" fill="#535461"/>
<path opacity="0.05" d="M1.13687 29.2507L14.8884 40.1542L41.0519 33.8523L27.4377 22.4016L1.13687 29.2507Z" fill="black"/>
<g opacity="0.5">
<path d="M40.2486 27.934H21.8094C21.5385 27.934 21.3189 28.1535 21.3189 28.4244V45.3618C21.3189 45.6326 21.5385 45.8522 21.8094 45.8522H40.2486C40.5195 45.8522 40.7391 45.6326 40.7391 45.3618V28.4244C40.7391 28.1535 40.5195 27.934 40.2486 27.934Z" fill="url(#paint80_linear_24_1006)"/>
</g>
<path d="M40.0382 28.0735H22.047C21.7761 28.0735 21.5565 28.2931 21.5565 28.5639V45.0664C21.5565 45.3373 21.7761 45.5569 22.047 45.5569H40.0382C40.3091 45.5569 40.5287 45.3373 40.5287 45.0664V28.5639C40.5287 28.2931 40.3091 28.0735 40.0382 28.0735Z" fill="#F5F5F5"/>
<path d="M25.7276 30.953H23.5085C23.2377 30.953 23.0181 31.1726 23.0181 31.4435V33.3421C23.0181 33.613 23.2377 33.8326 23.5085 33.8326H25.7276C25.9985 33.8326 26.2181 33.613 26.2181 33.3421V31.4435C26.2181 31.1726 25.9985 30.953 25.7276 30.953Z" fill="#005EFF"/>
<path d="M39.8104 30.953H27.2655C27.2173 30.953 27.1783 30.992 27.1783 31.0402V31.1862C27.1783 31.2344 27.2173 31.2734 27.2655 31.2734H39.8104C39.8586 31.2734 39.8976 31.2344 39.8976 31.1862V31.0402C39.8976 30.992 39.8586 30.953 39.8104 30.953Z" fill="#E0E0E0"/>
<path d="M39.8104 31.9122H27.2655C27.2173 31.9122 27.1783 31.9513 27.1783 31.9994V32.1455C27.1783 32.1936 27.2173 32.2327 27.2655 32.2327H39.8104C39.8586 32.2327 39.8976 32.1936 39.8976 32.1455V31.9994C39.8976 31.9513 39.8586 31.9122 39.8104 31.9122Z" fill="#E0E0E0"/>
<path d="M39.8104 35.3966H22.7859C22.7378 35.3966 22.6987 35.4356 22.6987 35.4838V35.6299C22.6987 35.678 22.7378 35.717 22.7859 35.717H39.8104C39.8586 35.717 39.8976 35.678 39.8976 35.6299V35.4838C39.8976 35.4356 39.8586 35.3966 39.8104 35.3966Z" fill="#E0E0E0"/>
<path d="M39.8104 36.3568H22.7859C22.7378 36.3568 22.6987 36.3959 22.6987 36.444V36.5901C22.6987 36.6382 22.7378 36.6772 22.7859 36.6772H39.8104C39.8586 36.6772 39.8976 36.6382 39.8976 36.5901V36.444C39.8976 36.3959 39.8586 36.3568 39.8104 36.3568Z" fill="#E0E0E0"/>
<path d="M39.8104 37.6365H22.7859C22.7378 37.6365 22.6987 37.6755 22.6987 37.7237V37.8697C22.6987 37.9179 22.7378 37.9569 22.7859 37.9569H39.8104C39.8586 37.9569 39.8976 37.9179 39.8976 37.8697V37.7237C39.8976 37.6755 39.8586 37.6365 39.8104 37.6365Z" fill="#E0E0E0"/>
<path d="M32.5309 38.5967H22.7859C22.7378 38.5967 22.6987 38.6357 22.6987 38.6839V38.8299C22.6987 38.8781 22.7378 38.9171 22.7859 38.9171H32.5309C32.579 38.9171 32.6181 38.8781 32.6181 38.8299V38.6839C32.6181 38.6357 32.579 38.5967 32.5309 38.5967Z" fill="#E0E0E0"/>
<path d="M39.8104 39.8729H22.7859C22.7378 39.8729 22.6987 39.912 22.6987 39.9601V40.1062C22.6987 40.1543 22.7378 40.1934 22.7859 40.1934H39.8104C39.8586 40.1934 39.8976 40.1543 39.8976 40.1062V39.9601C39.8976 39.912 39.8586 39.8729 39.8104 39.8729Z" fill="#E0E0E0"/>
<path d="M39.8104 40.8331H22.7859C22.7378 40.8331 22.6987 40.8722 22.6987 40.9203V41.0664C22.6987 41.1145 22.7378 41.1536 22.7859 41.1536H39.8104C39.8586 41.1536 39.8976 41.1145 39.8976 41.0664V40.9203C39.8976 40.8722 39.8586 40.8331 39.8104 40.8331Z" fill="#E0E0E0"/>
<path d="M39.8104 42.1127H22.7859C22.7378 42.1127 22.6987 42.1517 22.6987 42.1999V42.3459C22.6987 42.3941 22.7378 42.4331 22.7859 42.4331H39.8104C39.8586 42.4331 39.8976 42.3941 39.8976 42.3459V42.1999C39.8976 42.1517 39.8586 42.1127 39.8104 42.1127Z" fill="#E0E0E0"/>
<path d="M32.5309 43.073H22.7859C22.7378 43.073 22.6987 43.112 22.6987 43.1602V43.3062C22.6987 43.3544 22.7378 43.3934 22.7859 43.3934H32.5309C32.579 43.3934 32.6181 43.3544 32.6181 43.3062V43.1602C32.6181 43.112 32.579 43.073 32.5309 43.073Z" fill="#E0E0E0"/>
<g opacity="0.5">
<path d="M43.1794 32.0746H24.7402C24.4693 32.0746 24.2497 32.2942 24.2497 32.565V49.5024C24.2497 49.7733 24.4693 49.9928 24.7402 49.9928H43.1794C43.4503 49.9928 43.6699 49.7733 43.6699 49.5024V32.565C43.6699 32.2942 43.4503 32.0746 43.1794 32.0746Z" fill="url(#paint81_linear_24_1006)"/>
</g>
<path d="M42.969 32.2141H24.9778C24.7069 32.2141 24.4873 32.4337 24.4873 32.7046V49.207C24.4873 49.4779 24.7069 49.6975 24.9778 49.6975H42.969C43.2399 49.6975 43.4595 49.4779 43.4595 49.207V32.7046C43.4595 32.4337 43.2399 32.2141 42.969 32.2141Z" fill="white"/>
<path d="M28.6584 35.0936H26.4393C26.1685 35.0936 25.9489 35.3132 25.9489 35.5841V37.4827C25.9489 37.7536 26.1685 37.9732 26.4393 37.9732H28.6584C28.9293 37.9732 29.1489 37.7536 29.1489 37.4827V35.5841C29.1489 35.3132 28.9293 35.0936 28.6584 35.0936Z" fill="#005EFF"/>
<path d="M42.7413 35.0936H30.1963C30.1481 35.0936 30.1091 35.1327 30.1091 35.1808V35.3269C30.1091 35.375 30.1481 35.4141 30.1963 35.4141H42.7413C42.7894 35.4141 42.8284 35.375 42.8284 35.3269V35.1808C42.8284 35.1327 42.7894 35.0936 42.7413 35.0936Z" fill="#E0E0E0"/>
<path d="M42.7413 36.0527H30.1963C30.1481 36.0527 30.1091 36.0918 30.1091 36.1399V36.286C30.1091 36.3341 30.1481 36.3732 30.1963 36.3732H42.7413C42.7894 36.3732 42.8284 36.3341 42.8284 36.286V36.1399C42.8284 36.0918 42.7894 36.0527 42.7413 36.0527Z" fill="#E0E0E0"/>
<path d="M42.7412 39.5372H25.7167C25.6686 39.5372 25.6295 39.5763 25.6295 39.6244V39.7705C25.6295 39.8186 25.6686 39.8577 25.7167 39.8577H42.7412C42.7894 39.8577 42.8284 39.8186 42.8284 39.7705V39.6244C42.8284 39.5763 42.7894 39.5372 42.7412 39.5372Z" fill="#E0E0E0"/>
<path d="M42.7412 40.4974H25.7167C25.6686 40.4974 25.6295 40.5365 25.6295 40.5846V40.7307C25.6295 40.7788 25.6686 40.8179 25.7167 40.8179H42.7412C42.7894 40.8179 42.8284 40.7788 42.8284 40.7307V40.5846C42.8284 40.5365 42.7894 40.4974 42.7412 40.4974Z" fill="#E0E0E0"/>
<path d="M42.7412 41.777H25.7167C25.6686 41.777 25.6295 41.816 25.6295 41.8642V42.0102C25.6295 42.0584 25.6686 42.0974 25.7167 42.0974H42.7412C42.7894 42.0974 42.8284 42.0584 42.8284 42.0102V41.8642C42.8284 41.816 42.7894 41.777 42.7412 41.777Z" fill="#E0E0E0"/>
<path d="M35.4617 42.7373H25.7167C25.6686 42.7373 25.6295 42.7763 25.6295 42.8245V42.9705C25.6295 43.0187 25.6686 43.0577 25.7167 43.0577H35.4617C35.5098 43.0577 35.5489 43.0187 35.5489 42.9705V42.8245C35.5489 42.7763 35.5098 42.7373 35.4617 42.7373Z" fill="#E0E0E0"/>
<path d="M42.7412 44.0135H25.7167C25.6686 44.0135 25.6295 44.0526 25.6295 44.1007V44.2468C25.6295 44.2949 25.6686 44.334 25.7167 44.334H42.7412C42.7894 44.334 42.8284 44.2949 42.8284 44.2468V44.1007C42.8284 44.0526 42.7894 44.0135 42.7412 44.0135Z" fill="#E0E0E0"/>
<path d="M42.7412 44.9738H25.7167C25.6686 44.9738 25.6295 45.0128 25.6295 45.061V45.207C25.6295 45.2552 25.6686 45.2942 25.7167 45.2942H42.7412C42.7894 45.2942 42.8284 45.2552 42.8284 45.207V45.061C42.8284 45.0128 42.7894 44.9738 42.7412 44.9738Z" fill="#E0E0E0"/>
<path d="M42.7412 46.2533H25.7167C25.6686 46.2533 25.6295 46.2923 25.6295 46.3405V46.4865C25.6295 46.5347 25.6686 46.5737 25.7167 46.5737H42.7412C42.7894 46.5737 42.8284 46.5347 42.8284 46.4865V46.3405C42.8284 46.2923 42.7894 46.2533 42.7412 46.2533Z" fill="#E0E0E0"/>
<path d="M35.4617 47.2135H25.7167C25.6686 47.2135 25.6295 47.2525 25.6295 47.3007V47.4467C25.6295 47.4949 25.6686 47.5339 25.7167 47.5339H35.4617C35.5098 47.5339 35.5489 47.4949 35.5489 47.4467V47.3007C35.5489 47.2525 35.5098 47.2135 35.4617 47.2135Z" fill="#E0E0E0"/>
<g opacity="0.5">
<path d="M52.3707 34.3939H35.5434V54.1639H52.3707V34.3939Z" fill="url(#paint82_linear_24_1006)"/>
</g>
<path d="M52.0132 34.7122H36.0611V53.7269H52.0132V34.7122Z" fill="white"/>
<g opacity="0.5">
<path d="M44.9058 37.7356V37.2571H43.1674V37.7356H41.951V40.0821H46.1222V37.7356H44.9058ZM43.3799 37.4315H44.6878V37.7356H43.3799V37.4315Z" fill="url(#paint83_linear_24_1006)"/>
</g>
<path d="M45.9467 37.8152H42.1276V39.9634H45.9467V37.8152Z" fill="#005EFF"/>
<path d="M43.2415 37.3771V37.934H43.4399V37.5362H44.6333V37.934H44.8328V37.3771H43.2415Z" fill="#005EFF"/>
<path d="M49.6655 43.0544H38.4481V43.5318H49.6655V43.0544Z" fill="#E0E0E0"/>
<path d="M49.6655 46.1967H38.4481V46.674H49.6655V46.1967Z" fill="#E0E0E0"/>
<path d="M49.6655 47.0326H38.4481V47.51H49.6655V47.0326Z" fill="#E0E0E0"/>
<path d="M43.1816 45.3618H38.4481V45.8392H43.1816V45.3618Z" fill="#E0E0E0"/>
<path opacity="0.6" d="M49.6655 45.3618H46.1254V45.8392H49.6655V45.3618Z" fill="#3AD29F"/>
<path d="M45.926 48.9814H42.3859V49.4588H45.926V48.9814Z" fill="#005EFF"/>
<path d="M14.5614 39.9362V76.237L40.7249 82.9498L41.078 46.9225L14.5614 39.9362Z" fill="#535461"/>
<path d="M66.8895 76.1007L40.7249 82.9498V46.9225L66.8895 39.9362V76.1007Z" fill="#535461"/>
<path opacity="0.07" d="M66.8895 76.1007L40.7249 82.9498V46.9225L66.8895 39.9362V76.1007Z" fill="black"/>
<path opacity="0.07" d="M56.4786 64.0462V75.9634L66.8895 73.0871V61.1688L56.4786 64.0462Z" fill="black"/>
<path d="M60.9135 36.9083H53.1968V44.322H60.9135V36.9083Z" fill="url(#paint84_linear_24_1006)"/>
<path d="M60.7925 37.0892H53.3178V44.1704H60.7925V37.0892Z" fill="#F5F5F5"/>
<g opacity="0.5">
<path d="M57.7167 38.3307V37.9623H56.3946V38.3263H55.4693V40.1116H58.6421V38.3307H57.7167ZM56.5603 38.0996H57.5521V38.3307H56.5603V38.0996Z" fill="url(#paint85_linear_24_1006)"/>
</g>
<path opacity="0.6" d="M58.5069 38.3906H55.6023V40.0244H58.5069V38.3906Z" fill="#005EFF"/>
<path opacity="0.6" d="M56.4502 38.0582V38.4822H56.6017V38.1792H57.5096V38.4822H57.66V38.0582H56.4502Z" fill="#005EFF"/>
<g opacity="0.6">
<path d="M58.4622 41.2964H55.769V41.6593H58.4622V41.2964Z" fill="#005EFF"/>
</g>
<path d="M59.3549 41.9623H54.7554V42.3252H59.3549V41.9623Z" fill="#BDBDBD"/>
<path d="M53.5162 0.332886H45.7996V7.74651H53.5162V0.332886Z" fill="url(#paint86_linear_24_1006)"/>
<path d="M53.3952 0.514893H45.9205V7.59609H53.3952V0.514893Z" fill="#F5F5F5"/>
<g opacity="0.5">
<path d="M50.3194 1.75528V1.39233H48.9974V1.75528H48.072V3.54056H51.2448V1.75528H50.3194ZM49.163 1.52421H50.1549V1.75528H49.163V1.52421Z" fill="url(#paint87_linear_24_1006)"/>
</g>
<path opacity="0.6" d="M51.1096 1.81519H48.205V3.44897H51.1096V1.81519Z" fill="#005EFF"/>
<path opacity="0.6" d="M49.0529 1.48279V1.90677H49.2044V1.60377H50.1123V1.90677H50.2628V1.48279H49.0529Z" fill="#005EFF"/>
<g opacity="0.6">
<path d="M51.065 4.72095H48.3718V5.08389H51.065V4.72095Z" fill="#005EFF"/>
</g>
<path d="M51.9576 5.38684H47.3581V5.74978H51.9576V5.38684Z" fill="#BDBDBD"/>
<g opacity="0.5">
<path d="M44.9014 14.2446H34.9036V22.4572H44.9014V14.2446Z" fill="url(#paint88_linear_24_1006)"/>
</g>
<path d="M44.7663 14.4005H35.0203V22.3209H44.7663V14.4005Z" fill="#F2F2F2"/>
<path d="M44.7663 14.4005H35.0203V16.1673H44.7663V14.4005Z" fill="#005EFF"/>
<path opacity="0.1" d="M44.7663 14.4005H35.0203V16.1673H44.7663V14.4005Z" fill="black"/>
<path d="M43.9903 16.8081H35.7974V17.837H43.9903V16.8081Z" fill="#E0E0E0"/>
<path d="M41.7767 18.613H35.7974V18.9629H41.7767V18.613Z" fill="#E0E0E0"/>
<path d="M39.6797 19.2146H35.7974V19.5645H39.6797V19.2146Z" fill="#E0E0E0"/>
<path d="M40.9222 19.8163H35.7974V20.1661H40.9222V19.8163Z" fill="#E0E0E0"/>
<path d="M41.7767 20.4189H35.7974V20.7688H41.7767V20.4189Z" fill="#E0E0E0"/>
<path d="M37.7974 21.0206H35.7974V21.3705H37.7974V21.0206Z" fill="#E0E0E0"/>
<g opacity="0.5">
<path d="M61.9946 20.4114H49.6023V30.5901H61.9946V20.4114Z" fill="url(#paint89_linear_24_1006)"/>
</g>
<path d="M61.8268 20.6031H49.7473V30.4211H61.8268V20.6031Z" fill="white"/>
<path d="M61.8268 20.6031H49.7473V22.7928H61.8268V20.6031Z" fill="#005EFF"/>
<path d="M60.8644 23.5874H50.7096V24.8626H60.8644V23.5874Z" fill="#F5F5F5"/>
<path d="M58.1211 25.825H50.7096V26.2576H58.1211V25.825Z" fill="#E0E0E0"/>
<path d="M55.5227 26.5715H50.7096V27.0042H55.5227V26.5715Z" fill="#E0E0E0"/>
<path d="M57.0617 27.3171H50.7096V27.7498H57.0617V27.3171Z" fill="#E0E0E0"/>
<path d="M58.1211 28.0637H50.7096V28.4964H58.1211V28.0637Z" fill="#E0E0E0"/>
<path d="M53.1881 28.8092H50.7096V29.2419H53.1881V28.8092Z" fill="#E0E0E0"/>
<path d="M54.1265 24.02H51.2393V24.4048H54.1265V24.02Z" fill="#69F0AE"/>
<path opacity="0.1" d="M14.2192 58.7722L28.8764 62.4703L40.6573 52.8812V46.9912L14.4927 40.4158L14.2192 58.7722Z" fill="black"/>
<path opacity="0.1" d="M67.0955 58.7722L52.4382 62.4703L40.6573 52.8812V46.9912L66.8219 40.4158L67.0955 58.7722Z" fill="black"/>
<path d="M14.5614 39.9362L1.13687 51.0315L27.3004 57.607L40.7249 46.9225L14.5614 39.9362Z" fill="#535461"/>
<path d="M66.8895 39.9362L80.4513 51.0315L54.4241 57.607L40.7249 46.9225L66.8895 39.9362Z" fill="#535461"/>
<path opacity="0.07" d="M66.8895 39.9362L80.4513 51.0315L54.4241 57.607L40.7249 46.9225L66.8895 39.9362Z" fill="black"/>
</g>
</g>
</g>
<defs>
<linearGradient id="paint0_linear_24_1006" x1="40.4513" y1="58.7874" x2="66.8415" y2="58.7874" gradientUnits="userSpaceOnUse">
<stop stop-color="#808080" stop-opacity="0.25"/>
<stop offset="0.54" stop-color="#808080" stop-opacity="0.12"/>
<stop offset="1" stop-color="#808080" stop-opacity="0.1"/>
</linearGradient>
<linearGradient id="paint1_linear_24_1006" x1="40.4513" y1="58.7874" x2="66.8415" y2="58.7874" gradientUnits="userSpaceOnUse">
<stop stop-color="#808080" stop-opacity="0.25"/>
<stop offset="0.54" stop-color="#808080" stop-opacity="0.12"/>
<stop offset="1" stop-color="#808080" stop-opacity="0.1"/>
</linearGradient>
<linearGradient id="paint2_linear_24_1006" x1="14.0601" y1="58.7874" x2="40.4513" y2="58.7874" gradientUnits="userSpaceOnUse">
<stop stop-color="#808080" stop-opacity="0.25"/>
<stop offset="0.54" stop-color="#808080" stop-opacity="0.12"/>
<stop offset="1" stop-color="#808080" stop-opacity="0.1"/>
</linearGradient>
<linearGradient id="paint3_linear_24_1006" x1="14.0601" y1="58.7874" x2="40.4513" y2="58.7874" gradientUnits="userSpaceOnUse">
<stop stop-color="#808080" stop-opacity="0.25"/>
<stop offset="0.54" stop-color="#808080" stop-opacity="0.12"/>
<stop offset="1" stop-color="#808080" stop-opacity="0.1"/>
</linearGradient>
<linearGradient id="paint4_linear_24_1006" x1="40.4513" y1="31.4293" x2="80.52" y2="31.4293" gradientUnits="userSpaceOnUse">
<stop stop-color="#808080" stop-opacity="0.25"/>
<stop offset="0.54" stop-color="#808080" stop-opacity="0.12"/>
<stop offset="1" stop-color="#808080" stop-opacity="0.1"/>
</linearGradient>
<linearGradient id="paint5_linear_24_1006" x1="0.519989" y1="31.4293" x2="40.4513" y2="31.4293" gradientUnits="userSpaceOnUse">
<stop stop-color="#808080" stop-opacity="0.25"/>
<stop offset="0.54" stop-color="#808080" stop-opacity="0.12"/>
<stop offset="1" stop-color="#808080" stop-opacity="0.1"/>
</linearGradient>
<linearGradient id="paint6_linear_24_1006" x1="0.519989" y1="31.4293" x2="40.4513" y2="31.4293" gradientUnits="userSpaceOnUse">
<stop stop-color="#808080" stop-opacity="0.25"/>
<stop offset="0.54" stop-color="#808080" stop-opacity="0.12"/>
<stop offset="1" stop-color="#808080" stop-opacity="0.1"/>
</linearGradient>
<linearGradient id="paint7_linear_24_1006" x1="30.6715" y1="46.2392" x2="30.6715" y2="28.1672" gradientUnits="userSpaceOnUse">
<stop stop-color="#808080" stop-opacity="0.25"/>
<stop offset="0.54" stop-color="#808080" stop-opacity="0.12"/>
<stop offset="1" stop-color="#808080" stop-opacity="0.1"/>
</linearGradient>
<linearGradient id="paint8_linear_24_1006" x1="21.1162" y1="37.1241" x2="40.253" y2="37.1241" gradientUnits="userSpaceOnUse">
<stop stop-color="#808080" stop-opacity="0.25"/>
<stop offset="0.54" stop-color="#808080" stop-opacity="0.12"/>
<stop offset="1" stop-color="#808080" stop-opacity="0.1"/>
</linearGradient>
<linearGradient id="paint9_linear_24_1006" x1="22.5908" y1="32.6631" x2="25.8181" y2="32.6631" gradientUnits="userSpaceOnUse">
<stop stop-color="#808080" stop-opacity="0.25"/>
<stop offset="0.54" stop-color="#808080" stop-opacity="0.12"/>
<stop offset="1" stop-color="#808080" stop-opacity="0.1"/>
</linearGradient>
<linearGradient id="paint10_linear_24_1006" x1="26.7859" y1="31.3726" x2="39.6153" y2="31.3726" gradientUnits="userSpaceOnUse">
<stop stop-color="#808080" stop-opacity="0.25"/>
<stop offset="0.54" stop-color="#808080" stop-opacity="0.12"/>
<stop offset="1" stop-color="#808080" stop-opacity="0.1"/>
</linearGradient>
<linearGradient id="paint11_linear_24_1006" x1="26.7859" y1="32.3405" x2="39.6153" y2="32.3405" gradientUnits="userSpaceOnUse">
<stop stop-color="#808080" stop-opacity="0.25"/>
<stop offset="0.54" stop-color="#808080" stop-opacity="0.12"/>
<stop offset="1" stop-color="#808080" stop-opacity="0.1"/>
</linearGradient>
<linearGradient id="paint12_linear_24_1006" x1="22.2682" y1="35.8555" x2="39.6154" y2="35.8555" gradientUnits="userSpaceOnUse">
<stop stop-color="#808080" stop-opacity="0.25"/>
<stop offset="0.54" stop-color="#808080" stop-opacity="0.12"/>
<stop offset="1" stop-color="#808080" stop-opacity="0.1"/>
</linearGradient>
<linearGradient id="paint13_linear_24_1006" x1="22.2682" y1="36.8233" x2="39.6154" y2="36.8233" gradientUnits="userSpaceOnUse">
<stop stop-color="#808080" stop-opacity="0.25"/>
<stop offset="0.54" stop-color="#808080" stop-opacity="0.12"/>
<stop offset="1" stop-color="#808080" stop-opacity="0.1"/>
</linearGradient>
<linearGradient id="paint14_linear_24_1006" x1="22.2682" y1="38.1138" x2="39.6154" y2="38.1138" gradientUnits="userSpaceOnUse">
<stop stop-color="#808080" stop-opacity="0.25"/>
<stop offset="0.54" stop-color="#808080" stop-opacity="0.12"/>
<stop offset="1" stop-color="#808080" stop-opacity="0.1"/>
</linearGradient>
<linearGradient id="paint15_linear_24_1006" x1="22.2682" y1="39.0827" x2="32.2726" y2="39.0827" gradientUnits="userSpaceOnUse">
<stop stop-color="#808080" stop-opacity="0.25"/>
<stop offset="0.54" stop-color="#808080" stop-opacity="0.12"/>
<stop offset="1" stop-color="#808080" stop-opacity="0.1"/>
</linearGradient>
<linearGradient id="paint16_linear_24_1006" x1="22.2682" y1="40.3699" x2="39.6154" y2="40.3699" gradientUnits="userSpaceOnUse">
<stop stop-color="#808080" stop-opacity="0.25"/>
<stop offset="0.54" stop-color="#808080" stop-opacity="0.12"/>
<stop offset="1" stop-color="#808080" stop-opacity="0.1"/>
</linearGradient>
<linearGradient id="paint17_linear_24_1006" x1="22.2682" y1="41.3377" x2="39.6154" y2="41.3377" gradientUnits="userSpaceOnUse">
<stop stop-color="#808080" stop-opacity="0.25"/>
<stop offset="0.54" stop-color="#808080" stop-opacity="0.12"/>
<stop offset="1" stop-color="#808080" stop-opacity="0.1"/>
</linearGradient>
<linearGradient id="paint18_linear_24_1006" x1="22.2682" y1="42.6293" x2="39.6154" y2="42.6293" gradientUnits="userSpaceOnUse">
<stop stop-color="#808080" stop-opacity="0.25"/>
<stop offset="0.54" stop-color="#808080" stop-opacity="0.12"/>
<stop offset="1" stop-color="#808080" stop-opacity="0.1"/>
</linearGradient>
<linearGradient id="paint19_linear_24_1006" x1="22.2682" y1="43.5971" x2="32.2726" y2="43.5971" gradientUnits="userSpaceOnUse">
<stop stop-color="#808080" stop-opacity="0.25"/>
<stop offset="0.54" stop-color="#808080" stop-opacity="0.12"/>
<stop offset="1" stop-color="#808080" stop-opacity="0.1"/>
</linearGradient>
<linearGradient id="paint20_linear_24_1006" x1="33.6273" y1="50.4157" x2="33.6273" y2="32.3427" gradientUnits="userSpaceOnUse">
<stop stop-color="#808080" stop-opacity="0.25"/>
<stop offset="0.54" stop-color="#808080" stop-opacity="0.12"/>
<stop offset="1" stop-color="#808080" stop-opacity="0.1"/>
</linearGradient>
<linearGradient id="paint21_linear_24_1006" x1="24.072" y1="41.3007" x2="43.2088" y2="41.3007" gradientUnits="userSpaceOnUse">
<stop stop-color="#808080" stop-opacity="0.25"/>
<stop offset="0.54" stop-color="#808080" stop-opacity="0.12"/>
<stop offset="1" stop-color="#808080" stop-opacity="0.1"/>
</linearGradient>
<linearGradient id="paint22_linear_24_1006" x1="25.5467" y1="36.8397" x2="28.7739" y2="36.8397" gradientUnits="userSpaceOnUse">
<stop stop-color="#808080" stop-opacity="0.25"/>
<stop offset="0.54" stop-color="#808080" stop-opacity="0.12"/>
<stop offset="1" stop-color="#808080" stop-opacity="0.1"/>
</linearGradient>
<linearGradient id="paint23_linear_24_1006" x1="29.7429" y1="35.5492" x2="42.5723" y2="35.5492" gradientUnits="userSpaceOnUse">
<stop stop-color="#808080" stop-opacity="0.25"/>
<stop offset="0.54" stop-color="#808080" stop-opacity="0.12"/>
<stop offset="1" stop-color="#808080" stop-opacity="0.1"/>
</linearGradient>
<linearGradient id="paint24_linear_24_1006" x1="29.7429" y1="36.517" x2="42.5723" y2="36.517" gradientUnits="userSpaceOnUse">
<stop stop-color="#808080" stop-opacity="0.25"/>
<stop offset="0.54" stop-color="#808080" stop-opacity="0.12"/>
<stop offset="1" stop-color="#808080" stop-opacity="0.1"/>
</linearGradient>
<linearGradient id="paint25_linear_24_1006" x1="25.2241" y1="40.0309" x2="42.5723" y2="40.0309" gradientUnits="userSpaceOnUse">
<stop stop-color="#808080" stop-opacity="0.25"/>
<stop offset="0.54" stop-color="#808080" stop-opacity="0.12"/>
<stop offset="1" stop-color="#808080" stop-opacity="0.1"/>
</linearGradient>
<linearGradient id="paint26_linear_24_1006" x1="25.2241" y1="40.9999" x2="42.5723" y2="40.9999" gradientUnits="userSpaceOnUse">
<stop stop-color="#808080" stop-opacity="0.25"/>
<stop offset="0.54" stop-color="#808080" stop-opacity="0.12"/>
<stop offset="1" stop-color="#808080" stop-opacity="0.1"/>
</linearGradient>
<linearGradient id="paint27_linear_24_1006" x1="25.2241" y1="42.2903" x2="42.5723" y2="42.2903" gradientUnits="userSpaceOnUse">
<stop stop-color="#808080" stop-opacity="0.25"/>
<stop offset="0.54" stop-color="#808080" stop-opacity="0.12"/>
<stop offset="1" stop-color="#808080" stop-opacity="0.1"/>
</linearGradient>
<linearGradient id="paint28_linear_24_1006" x1="25.2241" y1="43.2582" x2="35.2285" y2="43.2582" gradientUnits="userSpaceOnUse">
<stop stop-color="#808080" stop-opacity="0.25"/>
<stop offset="0.54" stop-color="#808080" stop-opacity="0.12"/>
<stop offset="1" stop-color="#808080" stop-opacity="0.1"/>
</linearGradient>
<linearGradient id="paint29_linear_24_1006" x1="25.2241" y1="44.5464" x2="42.5723" y2="44.5464" gradientUnits="userSpaceOnUse">
<stop stop-color="#808080" stop-opacity="0.25"/>
<stop offset="0.54" stop-color="#808080" stop-opacity="0.12"/>
<stop offset="1" stop-color="#808080" stop-opacity="0.1"/>
</linearGradient>
<linearGradient id="paint30_linear_24_1006" x1="25.2241" y1="45.5143" x2="42.5723" y2="45.5143" gradientUnits="userSpaceOnUse">
<stop stop-color="#808080" stop-opacity="0.25"/>
<stop offset="0.54" stop-color="#808080" stop-opacity="0.12"/>
<stop offset="1" stop-color="#808080" stop-opacity="0.1"/>
</linearGradient>
<linearGradient id="paint31_linear_24_1006" x1="25.2241" y1="46.8058" x2="42.5723" y2="46.8058" gradientUnits="userSpaceOnUse">
<stop stop-color="#808080" stop-opacity="0.25"/>
<stop offset="0.54" stop-color="#808080" stop-opacity="0.12"/>
<stop offset="1" stop-color="#808080" stop-opacity="0.1"/>
</linearGradient>
<linearGradient id="paint32_linear_24_1006" x1="25.2241" y1="47.7737" x2="35.2285" y2="47.7737" gradientUnits="userSpaceOnUse">
<stop stop-color="#808080" stop-opacity="0.25"/>
<stop offset="0.54" stop-color="#808080" stop-opacity="0.12"/>
<stop offset="1" stop-color="#808080" stop-opacity="0.1"/>
</linearGradient>
<linearGradient id="paint33_linear_24_1006" x1="43.7102" y1="54.6228" x2="43.7102" y2="34.6816" gradientUnits="userSpaceOnUse">
<stop stop-color="#808080" stop-opacity="0.25"/>
<stop offset="0.54" stop-color="#808080" stop-opacity="0.12"/>
<stop offset="1" stop-color="#808080" stop-opacity="0.1"/>
</linearGradient>
<linearGradient id="paint34_linear_24_1006" x1="35.7462" y1="44.5923" x2="51.8355" y2="44.5923" gradientUnits="userSpaceOnUse">
<stop stop-color="#808080" stop-opacity="0.25"/>
<stop offset="0.54" stop-color="#808080" stop-opacity="0.12"/>
<stop offset="1" stop-color="#808080" stop-opacity="0.1"/>
</linearGradient>
<linearGradient id="paint35_linear_24_1006" x1="43.7908" y1="40.419" x2="43.7908" y2="37.571" gradientUnits="userSpaceOnUse">
<stop stop-color="#808080" stop-opacity="0.25"/>
<stop offset="0.54" stop-color="#808080" stop-opacity="0.12"/>
<stop offset="1" stop-color="#808080" stop-opacity="0.1"/>
</linearGradient>
<linearGradient id="paint36_linear_24_1006" x1="41.865" y1="39.2157" x2="45.7167" y2="39.2157" gradientUnits="userSpaceOnUse">
<stop stop-color="#808080" stop-opacity="0.25"/>
<stop offset="0.54" stop-color="#808080" stop-opacity="0.12"/>
<stop offset="1" stop-color="#808080" stop-opacity="0.1"/>
</linearGradient>
<linearGradient id="paint37_linear_24_1006" x1="42.9886" y1="37.9721" x2="44.593" y2="37.9721" gradientUnits="userSpaceOnUse">
<stop stop-color="#808080" stop-opacity="0.25"/>
<stop offset="0.54" stop-color="#808080" stop-opacity="0.12"/>
<stop offset="1" stop-color="#808080" stop-opacity="0.1"/>
</linearGradient>
<linearGradient id="paint38_linear_24_1006" x1="38.1538" y1="43.6582" x2="49.4682" y2="43.6582" gradientUnits="userSpaceOnUse">
<stop stop-color="#808080" stop-opacity="0.25"/>
<stop offset="0.54" stop-color="#808080" stop-opacity="0.12"/>
<stop offset="1" stop-color="#808080" stop-opacity="0.1"/>
</linearGradient>
<linearGradient id="paint39_linear_24_1006" x1="38.1538" y1="46.8277" x2="49.4682" y2="46.8277" gradientUnits="userSpaceOnUse">
<stop stop-color="#808080" stop-opacity="0.25"/>
<stop offset="0.54" stop-color="#808080" stop-opacity="0.12"/>
<stop offset="1" stop-color="#808080" stop-opacity="0.1"/>
</linearGradient>
<linearGradient id="paint40_linear_24_1006" x1="38.1538" y1="47.6702" x2="49.4682" y2="47.6702" gradientUnits="userSpaceOnUse">
<stop stop-color="#808080" stop-opacity="0.25"/>
<stop offset="0.54" stop-color="#808080" stop-opacity="0.12"/>
<stop offset="1" stop-color="#808080" stop-opacity="0.1"/>
</linearGradient>
<linearGradient id="paint41_linear_24_1006" x1="38.1538" y1="45.9851" x2="42.9287" y2="45.9851" gradientUnits="userSpaceOnUse">
<stop stop-color="#808080" stop-opacity="0.25"/>
<stop offset="0.54" stop-color="#808080" stop-opacity="0.12"/>
<stop offset="1" stop-color="#808080" stop-opacity="0.1"/>
</linearGradient>
<linearGradient id="paint42_linear_24_1006" x1="45.8976" y1="45.9851" x2="49.4682" y2="45.9851" gradientUnits="userSpaceOnUse">
<stop stop-color="#808080" stop-opacity="0.25"/>
<stop offset="0.54" stop-color="#808080" stop-opacity="0.12"/>
<stop offset="1" stop-color="#808080" stop-opacity="0.1"/>
</linearGradient>
<linearGradient id="paint43_linear_24_1006" x1="42.1254" y1="49.6364" x2="45.6971" y2="49.6364" gradientUnits="userSpaceOnUse">
<stop stop-color="#808080" stop-opacity="0.25"/>
<stop offset="0.54" stop-color="#808080" stop-opacity="0.12"/>
<stop offset="1" stop-color="#808080" stop-opacity="0.1"/>
</linearGradient>
<linearGradient id="paint44_linear_24_1006" x1="14.0601" y1="61.9645" x2="40.4513" y2="61.9645" gradientUnits="userSpaceOnUse">
<stop stop-color="#808080" stop-opacity="0.25"/>
<stop offset="0.54" stop-color="#808080" stop-opacity="0.12"/>
<stop offset="1" stop-color="#808080" stop-opacity="0.1"/>
</linearGradient>
<linearGradient id="paint45_linear_24_1006" x1="40.4513" y1="61.9645" x2="66.8415" y2="61.9645" gradientUnits="userSpaceOnUse">
<stop stop-color="#808080" stop-opacity="0.25"/>
<stop offset="0.54" stop-color="#808080" stop-opacity="0.12"/>
<stop offset="1" stop-color="#808080" stop-opacity="0.1"/>
</linearGradient>
<linearGradient id="paint46_linear_24_1006" x1="40.4513" y1="61.9645" x2="66.8415" y2="61.9645" gradientUnits="userSpaceOnUse">
<stop stop-color="#808080" stop-opacity="0.25"/>
<stop offset="0.54" stop-color="#808080" stop-opacity="0.12"/>
<stop offset="1" stop-color="#808080" stop-opacity="0.1"/>
</linearGradient>
<linearGradient id="paint47_linear_24_1006" x1="56.3401" y1="69.1492" x2="66.8415" y2="69.1492" gradientUnits="userSpaceOnUse">
<stop stop-color="#808080" stop-opacity="0.25"/>
<stop offset="0.54" stop-color="#808080" stop-opacity="0.12"/>
<stop offset="1" stop-color="#808080" stop-opacity="0.1"/>
</linearGradient>
<linearGradient id="paint48_linear_24_1006" x1="56.9222" y1="44.6958" x2="56.9222" y2="37.2179" gradientUnits="userSpaceOnUse">
<stop stop-color="#808080" stop-opacity="0.25"/>
<stop offset="0.54" stop-color="#808080" stop-opacity="0.12"/>
<stop offset="1" stop-color="#808080" stop-opacity="0.1"/>
</linearGradient>
<linearGradient id="paint49_linear_24_1006" x1="53.1521" y1="40.9727" x2="60.6911" y2="40.9727" gradientUnits="userSpaceOnUse">
<stop stop-color="#808080" stop-opacity="0.25"/>
<stop offset="0.54" stop-color="#808080" stop-opacity="0.12"/>
<stop offset="1" stop-color="#808080" stop-opacity="0.1"/>
</linearGradient>
<linearGradient id="paint50_linear_24_1006" x1="56.9222" y1="40.4539" x2="56.9222" y2="38.286" gradientUnits="userSpaceOnUse">
<stop stop-color="#808080" stop-opacity="0.25"/>
<stop offset="0.54" stop-color="#808080" stop-opacity="0.12"/>
<stop offset="1" stop-color="#808080" stop-opacity="0.1"/>
</linearGradient>
<linearGradient id="paint51_linear_24_1006" x1="55.4562" y1="39.5383" x2="58.387" y2="39.5383" gradientUnits="userSpaceOnUse">
<stop stop-color="#808080" stop-opacity="0.25"/>
<stop offset="0.54" stop-color="#808080" stop-opacity="0.12"/>
<stop offset="1" stop-color="#808080" stop-opacity="0.1"/>
</linearGradient>
<linearGradient id="paint52_linear_24_1006" x1="56.3118" y1="38.5923" x2="57.5325" y2="38.5923" gradientUnits="userSpaceOnUse">
<stop stop-color="#808080" stop-opacity="0.25"/>
<stop offset="0.54" stop-color="#808080" stop-opacity="0.12"/>
<stop offset="1" stop-color="#808080" stop-opacity="0.1"/>
</linearGradient>
<linearGradient id="paint53_linear_24_1006" x1="55.6241" y1="41.8272" x2="58.3413" y2="41.8272" gradientUnits="userSpaceOnUse">
<stop stop-color="#808080" stop-opacity="0.25"/>
<stop offset="0.54" stop-color="#808080" stop-opacity="0.12"/>
<stop offset="1" stop-color="#808080" stop-opacity="0.1"/>
</linearGradient>
<linearGradient id="paint54_linear_24_1006" x1="54.6017" y1="42.4985" x2="59.2415" y2="42.4985" gradientUnits="userSpaceOnUse">
<stop stop-color="#808080" stop-opacity="0.25"/>
<stop offset="0.54" stop-color="#808080" stop-opacity="0.12"/>
<stop offset="1" stop-color="#808080" stop-opacity="0.1"/>
</linearGradient>
<linearGradient id="paint55_linear_24_1006" x1="39.6219" y1="22.6424" x2="39.6219" y2="14.359" gradientUnits="userSpaceOnUse">
<stop stop-color="#808080" stop-opacity="0.25"/>
<stop offset="0.54" stop-color="#808080" stop-opacity="0.12"/>
<stop offset="1" stop-color="#808080" stop-opacity="0.1"/>
</linearGradient>
<linearGradient id="paint56_linear_24_1006" x1="34.6966" y1="18.5105" x2="44.5265" y2="18.5105" gradientUnits="userSpaceOnUse">
<stop stop-color="#808080" stop-opacity="0.25"/>
<stop offset="0.54" stop-color="#808080" stop-opacity="0.12"/>
<stop offset="1" stop-color="#808080" stop-opacity="0.1"/>
</linearGradient>
<linearGradient id="paint57_linear_24_1006" x1="34.6966" y1="15.4065" x2="44.5265" y2="15.4065" gradientUnits="userSpaceOnUse">
<stop stop-color="#808080" stop-opacity="0.25"/>
<stop offset="0.54" stop-color="#808080" stop-opacity="0.12"/>
<stop offset="1" stop-color="#808080" stop-opacity="0.1"/>
</linearGradient>
<linearGradient id="paint58_linear_24_1006" x1="34.6966" y1="15.4065" x2="44.5265" y2="15.4065" gradientUnits="userSpaceOnUse">
<stop stop-color="#808080" stop-opacity="0.25"/>
<stop offset="0.54" stop-color="#808080" stop-opacity="0.12"/>
<stop offset="1" stop-color="#808080" stop-opacity="0.1"/>
</linearGradient>
<linearGradient id="paint59_linear_24_1006" x1="35.4802" y1="17.4631" x2="43.7429" y2="17.4631" gradientUnits="userSpaceOnUse">
<stop stop-color="#808080" stop-opacity="0.25"/>
<stop offset="0.54" stop-color="#808080" stop-opacity="0.12"/>
<stop offset="1" stop-color="#808080" stop-opacity="0.1"/>
</linearGradient>
<linearGradient id="paint60_linear_24_1006" x1="35.4802" y1="18.941" x2="41.5107" y2="18.941" gradientUnits="userSpaceOnUse">
<stop stop-color="#808080" stop-opacity="0.25"/>
<stop offset="0.54" stop-color="#808080" stop-opacity="0.12"/>
<stop offset="1" stop-color="#808080" stop-opacity="0.1"/>
</linearGradient>
<linearGradient id="paint61_linear_24_1006" x1="35.4802" y1="19.5482" x2="39.3963" y2="19.5482" gradientUnits="userSpaceOnUse">
<stop stop-color="#808080" stop-opacity="0.25"/>
<stop offset="0.54" stop-color="#808080" stop-opacity="0.12"/>
<stop offset="1" stop-color="#808080" stop-opacity="0.1"/>
</linearGradient>
<linearGradient id="paint62_linear_24_1006" x1="35.4802" y1="20.1552" x2="40.6497" y2="20.1552" gradientUnits="userSpaceOnUse">
<stop stop-color="#808080" stop-opacity="0.25"/>
<stop offset="0.54" stop-color="#808080" stop-opacity="0.12"/>
<stop offset="1" stop-color="#808080" stop-opacity="0.1"/>
</linearGradient>
<linearGradient id="paint63_linear_24_1006" x1="35.4802" y1="20.7623" x2="41.5107" y2="20.7623" gradientUnits="userSpaceOnUse">
<stop stop-color="#808080" stop-opacity="0.25"/>
<stop offset="0.54" stop-color="#808080" stop-opacity="0.12"/>
<stop offset="1" stop-color="#808080" stop-opacity="0.1"/>
</linearGradient>
<linearGradient id="paint64_linear_24_1006" x1="35.4802" y1="21.3693" x2="37.4966" y2="21.3693" gradientUnits="userSpaceOnUse">
<stop stop-color="#808080" stop-opacity="0.25"/>
<stop offset="0.54" stop-color="#808080" stop-opacity="0.12"/>
<stop offset="1" stop-color="#808080" stop-opacity="0.1"/>
</linearGradient>
<linearGradient id="paint65_linear_24_1006" x1="55.6546" y1="30.8452" x2="55.6546" y2="20.5792" gradientUnits="userSpaceOnUse">
<stop stop-color="#808080" stop-opacity="0.25"/>
<stop offset="0.54" stop-color="#808080" stop-opacity="0.12"/>
<stop offset="1" stop-color="#808080" stop-opacity="0.1"/>
</linearGradient>
<linearGradient id="paint66_linear_24_1006" x1="49.5511" y1="25.7236" x2="61.7342" y2="25.7236" gradientUnits="userSpaceOnUse">
<stop stop-color="#808080" stop-opacity="0.25"/>
<stop offset="0.54" stop-color="#808080" stop-opacity="0.12"/>
<stop offset="1" stop-color="#808080" stop-opacity="0.1"/>
</linearGradient>
<linearGradient id="paint67_linear_24_1006" x1="49.5511" y1="21.8773" x2="61.7342" y2="21.8773" gradientUnits="userSpaceOnUse">
<stop stop-color="#808080" stop-opacity="0.25"/>
<stop offset="0.54" stop-color="#808080" stop-opacity="0.12"/>
<stop offset="1" stop-color="#808080" stop-opacity="0.1"/>
</linearGradient>
<linearGradient id="paint68_linear_24_1006" x1="50.5211" y1="24.4255" x2="60.763" y2="24.4255" gradientUnits="userSpaceOnUse">
<stop stop-color="#808080" stop-opacity="0.25"/>
<stop offset="0.54" stop-color="#808080" stop-opacity="0.12"/>
<stop offset="1" stop-color="#808080" stop-opacity="0.1"/>
</linearGradient>
<linearGradient id="paint69_linear_24_1006" x1="50.5211" y1="26.2577" x2="57.9968" y2="26.2577" gradientUnits="userSpaceOnUse">
<stop stop-color="#808080" stop-opacity="0.25"/>
<stop offset="0.54" stop-color="#808080" stop-opacity="0.12"/>
<stop offset="1" stop-color="#808080" stop-opacity="0.1"/>
</linearGradient>
<linearGradient id="paint70_linear_24_1006" x1="50.5211" y1="27.0108" x2="55.3756" y2="27.0108" gradientUnits="userSpaceOnUse">
<stop stop-color="#808080" stop-opacity="0.25"/>
<stop offset="0.54" stop-color="#808080" stop-opacity="0.12"/>
<stop offset="1" stop-color="#808080" stop-opacity="0.1"/>
</linearGradient>
<linearGradient id="paint71_linear_24_1006" x1="50.5211" y1="27.7628" x2="56.9287" y2="27.7628" gradientUnits="userSpaceOnUse">
<stop stop-color="#808080" stop-opacity="0.25"/>
<stop offset="0.54" stop-color="#808080" stop-opacity="0.12"/>
<stop offset="1" stop-color="#808080" stop-opacity="0.1"/>
</linearGradient>
<linearGradient id="paint72_linear_24_1006" x1="50.5211" y1="28.5149" x2="57.9968" y2="28.5149" gradientUnits="userSpaceOnUse">
<stop stop-color="#808080" stop-opacity="0.25"/>
<stop offset="0.54" stop-color="#808080" stop-opacity="0.12"/>
<stop offset="1" stop-color="#808080" stop-opacity="0.1"/>
</linearGradient>
<linearGradient id="paint73_linear_24_1006" x1="50.5211" y1="29.268" x2="53.0214" y2="29.268" gradientUnits="userSpaceOnUse">
<stop stop-color="#808080" stop-opacity="0.25"/>
<stop offset="0.54" stop-color="#808080" stop-opacity="0.12"/>
<stop offset="1" stop-color="#808080" stop-opacity="0.1"/>
</linearGradient>
<linearGradient id="paint74_linear_24_1006" x1="51.0551" y1="24.4135" x2="53.9674" y2="24.4135" gradientUnits="userSpaceOnUse">
<stop stop-color="#808080" stop-opacity="0.25"/>
<stop offset="0.54" stop-color="#808080" stop-opacity="0.12"/>
<stop offset="1" stop-color="#808080" stop-opacity="0.1"/>
</linearGradient>
<linearGradient id="paint75_linear_24_1006" x1="13.7156" y1="51.8784" x2="40.3816" y2="51.8784" gradientUnits="userSpaceOnUse">
<stop stop-color="#808080" stop-opacity="0.25"/>
<stop offset="0.54" stop-color="#808080" stop-opacity="0.12"/>
<stop offset="1" stop-color="#808080" stop-opacity="0.1"/>
</linearGradient>
<linearGradient id="paint76_linear_24_1006" x1="40.3816" y1="51.8784" x2="67.0486" y2="51.8784" gradientUnits="userSpaceOnUse">
<stop stop-color="#808080" stop-opacity="0.25"/>
<stop offset="0.54" stop-color="#808080" stop-opacity="0.12"/>
<stop offset="1" stop-color="#808080" stop-opacity="0.1"/>
</linearGradient>
<linearGradient id="paint77_linear_24_1006" x1="0.519989" y1="49.1841" x2="40.4513" y2="49.1841" gradientUnits="userSpaceOnUse">
<stop stop-color="#808080" stop-opacity="0.25"/>
<stop offset="0.54" stop-color="#808080" stop-opacity="0.12"/>
<stop offset="1" stop-color="#808080" stop-opacity="0.1"/>
</linearGradient>
<linearGradient id="paint78_linear_24_1006" x1="40.4513" y1="49.1841" x2="80.52" y2="49.1841" gradientUnits="userSpaceOnUse">
<stop stop-color="#808080" stop-opacity="0.25"/>
<stop offset="0.54" stop-color="#808080" stop-opacity="0.12"/>
<stop offset="1" stop-color="#808080" stop-opacity="0.1"/>
</linearGradient>
<linearGradient id="paint79_linear_24_1006" x1="40.4513" y1="49.1841" x2="80.52" y2="49.1841" gradientUnits="userSpaceOnUse">
<stop stop-color="#808080" stop-opacity="0.25"/>
<stop offset="0.54" stop-color="#808080" stop-opacity="0.12"/>
<stop offset="1" stop-color="#808080" stop-opacity="0.1"/>
</linearGradient>
<linearGradient id="paint80_linear_24_1006" x1="31.029" y1="45.8522" x2="31.029" y2="27.934" gradientUnits="userSpaceOnUse">
<stop stop-color="#808080" stop-opacity="0.25"/>
<stop offset="0.54" stop-color="#808080" stop-opacity="0.12"/>
<stop offset="1" stop-color="#808080" stop-opacity="0.1"/>
</linearGradient>
<linearGradient id="paint81_linear_24_1006" x1="33.9609" y1="49.9928" x2="33.9609" y2="32.0746" gradientUnits="userSpaceOnUse">
<stop stop-color="#808080" stop-opacity="0.25"/>
<stop offset="0.54" stop-color="#808080" stop-opacity="0.12"/>
<stop offset="1" stop-color="#808080" stop-opacity="0.1"/>
</linearGradient>
<linearGradient id="paint82_linear_24_1006" x1="43.9576" y1="54.1639" x2="43.9576" y2="34.3939" gradientUnits="userSpaceOnUse">
<stop stop-color="#808080" stop-opacity="0.25"/>
<stop offset="0.54" stop-color="#808080" stop-opacity="0.12"/>
<stop offset="1" stop-color="#808080" stop-opacity="0.1"/>
</linearGradient>
<linearGradient id="paint83_linear_24_1006" x1="44.0372" y1="40.0821" x2="44.0372" y2="37.2571" gradientUnits="userSpaceOnUse">
<stop stop-color="#808080" stop-opacity="0.25"/>
<stop offset="0.54" stop-color="#808080" stop-opacity="0.12"/>
<stop offset="1" stop-color="#808080" stop-opacity="0.1"/>
</linearGradient>
<linearGradient id="paint84_linear_24_1006" x1="57.0551" y1="44.322" x2="57.0551" y2="36.9083" gradientUnits="userSpaceOnUse">
<stop stop-color="#808080" stop-opacity="0.25"/>
<stop offset="0.54" stop-color="#808080" stop-opacity="0.12"/>
<stop offset="1" stop-color="#808080" stop-opacity="0.1"/>
</linearGradient>
<linearGradient id="paint85_linear_24_1006" x1="57.0551" y1="40.116" x2="57.0551" y2="37.9677" gradientUnits="userSpaceOnUse">
<stop stop-color="#808080" stop-opacity="0.25"/>
<stop offset="0.54" stop-color="#808080" stop-opacity="0.12"/>
<stop offset="1" stop-color="#808080" stop-opacity="0.1"/>
</linearGradient>
<linearGradient id="paint86_linear_24_1006" x1="49.6579" y1="7.74651" x2="49.6579" y2="0.332886" gradientUnits="userSpaceOnUse">
<stop stop-color="#808080" stop-opacity="0.25"/>
<stop offset="0.54" stop-color="#808080" stop-opacity="0.12"/>
<stop offset="1" stop-color="#808080" stop-opacity="0.1"/>
</linearGradient>
<linearGradient id="paint87_linear_24_1006" x1="49.6579" y1="3.54056" x2="49.6579" y2="1.39233" gradientUnits="userSpaceOnUse">
<stop stop-color="#808080" stop-opacity="0.25"/>
<stop offset="0.54" stop-color="#808080" stop-opacity="0.12"/>
<stop offset="1" stop-color="#808080" stop-opacity="0.1"/>
</linearGradient>
<linearGradient id="paint88_linear_24_1006" x1="39.9031" y1="22.4572" x2="39.9031" y2="14.2446" gradientUnits="userSpaceOnUse">
<stop stop-color="#808080" stop-opacity="0.25"/>
<stop offset="0.54" stop-color="#808080" stop-opacity="0.12"/>
<stop offset="1" stop-color="#808080" stop-opacity="0.1"/>
</linearGradient>
<linearGradient id="paint89_linear_24_1006" x1="55.7985" y1="30.5901" x2="55.7985" y2="20.4114" gradientUnits="userSpaceOnUse">
<stop stop-color="#808080" stop-opacity="0.25"/>
<stop offset="0.54" stop-color="#808080" stop-opacity="0.12"/>
<stop offset="1" stop-color="#808080" stop-opacity="0.1"/>
</linearGradient>
<clipPath id="clip0_24_1006">
<rect x="0.519989" y="0.339966" width="80" height="83.31" rx="4" fill="white"/>
</clipPath>
<clipPath id="clip1_24_1006">
<rect width="80" height="83.31" fill="white" transform="translate(0.519989 0.339966)"/>
</clipPath>
<clipPath id="clip2_24_1006">
<rect width="80" height="83.3242" fill="white" transform="translate(0.519989 0.332886)"/>
</clipPath>
</defs>
</svg>
