<svg width="29" height="29" viewBox="0 0 29 29" fill="none" xmlns="http://www.w3.org/2000/svg">
<g clip-path="url(#clip0_24_914)">
<g clip-path="url(#clip1_24_914)">
<g clip-path="url(#clip2_24_914)">
<path fill-rule="evenodd" clip-rule="evenodd" d="M17.2608 10.5184H24.8113L24.6326 11.8372H17.4394L17.2608 10.5184ZM28.92 8.40832C28.92 4.0448 25.3864 0.5 21.0357 0.5C16.6817 0.5 13.1521 4.04144 13.1521 8.40832C13.1521 12.7735 16.6845 16.3161 21.0357 16.3161C25.3853 16.3161 28.92 12.7718 28.92 8.40832ZM12.2073 6.63144C12.4655 5.3356 13.0037 4.11256 13.7899 3.04632V2.65992C12.6481 3.734 11.6686 4.96152 10.8829 6.30776C11.3153 6.43712 11.7571 6.54576 12.2073 6.63144ZM12.0326 8.3428C11.3679 8.2224 10.7194 8.05944 10.0889 7.85616C9.14414 9.97352 8.64686 12.3238 8.6967 14.7968C8.74598 17.2294 9.3155 19.5764 10.2989 21.7055C11.4166 21.3589 12.587 21.1394 13.7899 21.0677V13.7692C12.6481 12.218 12.0035 10.2737 12.0326 8.3428ZM9.2539 5.70072C10.2076 4.00168 11.4373 2.4684 12.8939 1.15352C10.4389 1.46768 8.18598 2.432 6.31334 3.86952C7.20262 4.60536 8.19102 5.22192 9.2539 5.70072ZM8.48726 7.23456C7.22166 6.65664 6.05182 5.9068 5.00798 5.00856C2.38326 7.61592 0.919983 11.1036 0.919983 14.8125C0.919983 18.5163 2.38718 22.0225 5.01414 24.622C6.10894 23.6879 7.34766 22.9034 8.68942 22.3098C7.64614 20.007 7.04134 17.4691 6.98814 14.8298C6.93382 12.1228 7.46806 9.5524 8.48726 7.23456ZM15.5052 15.536V21.0671C16.7232 21.1371 17.9048 21.3561 19.0298 21.7055C19.638 20.3576 20.0865 18.9184 20.3486 17.4137C18.579 17.2787 16.8985 16.6263 15.5052 15.536ZM22.0863 17.3778C21.8153 19.1099 21.3202 20.7653 20.6348 22.3086C21.9676 22.9 23.1957 23.6829 24.2837 24.6198C27.189 21.7324 28.659 17.7833 28.332 13.6986C26.8547 15.7438 24.5951 17.0838 22.0863 17.3778ZM18.2341 23.2595C17.3593 23.0109 16.4465 22.8513 15.5052 22.7908V26.8441C16.5563 25.7823 17.4758 24.5772 18.2341 23.2595ZM13.7893 26.7394V22.7914C12.8681 22.8524 11.9705 23.0109 11.1086 23.255C11.8573 24.529 12.7595 25.7011 13.7893 26.7394ZM13.1425 28.5C11.6933 27.1549 10.4501 25.5802 9.46726 23.8414C8.32486 24.337 7.26478 24.9877 6.32174 25.761C8.25598 27.2428 10.5945 28.2211 13.1425 28.5ZM19.8693 23.847C18.9061 25.5835 17.692 27.1493 16.2819 28.4849C18.7795 28.1875 21.0727 27.217 22.9745 25.7605C22.0387 24.9854 20.9943 24.3386 19.8693 23.847ZM25.5185 5.29584L24.9154 9.75288H17.1572L16.5541 5.29584L19.3972 8.08128L21.0363 4.97888L22.6754 8.08128L25.5185 5.29584Z" fill="white"/>
</g>
</g>
</g>
<defs>
<clipPath id="clip0_24_914">
<rect x="0.919983" y="0.5" width="28" height="28" rx="4" fill="white"/>
</clipPath>
<clipPath id="clip1_24_914">
<rect width="28" height="28" fill="white" transform="translate(0.919983 0.5)"/>
</clipPath>
<clipPath id="clip2_24_914">
<rect width="28" height="28" fill="white" transform="translate(0.919983 0.5)"/>
</clipPath>
</defs>
</svg>
