<svg width="27" height="27" viewBox="0 0 27 27" fill="none" xmlns="http://www.w3.org/2000/svg">
<g clip-path="url(#clip0_24_866)">
<g clip-path="url(#clip1_24_866)">
<g clip-path="url(#clip2_24_866)">
<path d="M18.934 6.35004H23.12C23.042 6.22004 22.938 6.09004 22.808 5.96004L18.674 1.82604C18.57 1.72204 18.44 1.61804 18.284 1.51404V5.67404C18.284 6.06404 18.57 6.35004 18.934 6.35004Z" fill="white"/>
<path d="M9.496 15.788L12.486 19.74L11.238 15.788H9.496Z" fill="white"/>
<path d="M14.046 13.162H12.954L12.304 14.826H14.696L14.046 13.162Z" fill="white"/>
<path d="M12.252 15.788L13.5 19.766L14.748 15.788H12.252Z" fill="white"/>
<path d="M11.94 13.162H10.588C10.484 13.162 10.38 13.214 10.328 13.318L9.41801 14.826H11.29L11.94 13.162Z" fill="white"/>
<path d="M18.934 8.09202C17.608 8.09202 16.542 7.02602 16.542 5.70002V1.15002H5.85601C5.23201 1.15002 4.66001 1.38402 4.21801 1.82602C3.77601 2.26802 3.54201 2.84002 3.54201 3.46402V23.51C3.54201 24.784 4.58201 25.824 5.85601 25.824H21.17C22.444 25.824 23.484 24.784 23.484 23.51V8.09202H18.934ZM18.518 16.022L14.488 21.326C14.254 21.638 13.89 21.82 13.5 21.82C13.11 21.82 12.746 21.638 12.512 21.326L8.48201 16.022C8.17001 15.606 8.14401 15.06 8.40401 14.618L9.49601 12.824C9.73001 12.46 10.146 12.226 10.562 12.226H16.412C16.854 12.226 17.27 12.46 17.478 12.824L18.57 14.618C18.856 15.06 18.83 15.606 18.518 16.022Z" fill="white"/>
<path d="M16.412 13.162H15.06L15.71 14.826H17.582L16.672 13.318C16.62 13.214 16.516 13.162 16.412 13.162Z" fill="white"/>
<path d="M14.514 19.74L17.504 15.788H15.762L14.514 19.74Z" fill="white"/>
</g>
</g>
</g>
<defs>
<clipPath id="clip0_24_866">
<rect x="0.5" y="0.5" width="26" height="26" rx="4" fill="white"/>
</clipPath>
<clipPath id="clip1_24_866">
<rect width="26" height="26" fill="white" transform="translate(0.5 0.5)"/>
</clipPath>
<clipPath id="clip2_24_866">
<rect width="26" height="26" fill="white" transform="translate(0.5 0.5)"/>
</clipPath>
</defs>
</svg>
