<svg width="25" height="25" viewBox="0 0 25 25" fill="none" xmlns="http://www.w3.org/2000/svg">
<g clip-path="url(#clip0_24_900)">
<g clip-path="url(#clip1_24_900)">
<g clip-path="url(#clip2_24_900)">
<path d="M6.875 14C6.77554 14 6.68016 14.0395 6.60983 14.1098C6.53951 14.1802 6.5 14.2755 6.5 14.375C6.5 14.4745 6.53951 14.5698 6.60983 14.6402C6.68016 14.7105 6.77554 14.75 6.875 14.75H7.50755C7.47253 14.5014 7.45171 14.251 7.44517 14H6.875Z" fill="white"/>
<path d="M21.1944 18.7194C21.1247 18.6497 21.042 18.5945 20.9509 18.5569C20.8599 18.5192 20.7623 18.4999 20.6638 18.5C20.5755 18.5006 20.4879 18.5165 20.405 18.5469L18.86 17.0019C19.6416 15.8097 19.9573 14.3716 19.7471 12.9617C19.5369 11.5517 18.8153 10.2684 17.7199 9.35607C16.6245 8.44378 15.2318 7.96629 13.8071 8.01456C12.3823 8.06284 11.0252 8.63351 9.99402 9.61786C8.96289 10.6022 8.32987 11.9315 8.21555 13.3524C8.10123 14.7734 8.51359 16.1867 9.37409 17.3233C10.2346 18.4598 11.4831 19.2401 12.8818 19.5156C14.2805 19.791 15.7316 19.5423 16.9588 18.8169L18.5469 20.405C18.4969 20.5393 18.4867 20.6851 18.5172 20.825C18.5478 20.965 18.618 21.0932 18.7194 21.1944L21.5131 23.9881C21.8413 24.3163 22.2865 24.5007 22.7506 24.5007C23.2148 24.5007 23.6599 24.3163 23.9881 23.9881C24.3163 23.6599 24.5007 23.2148 24.5007 22.7506C24.5007 22.2865 24.3163 21.8413 23.9881 21.5131L21.1944 18.7194ZM16.4544 11.1931C16.0841 10.8536 15.6519 10.5888 15.1813 10.4131C15.1352 10.3959 15.093 10.3697 15.0571 10.3362C15.0211 10.3027 14.9921 10.2624 14.9718 10.2176C14.9514 10.1729 14.94 10.1245 14.9383 10.0754C14.9366 10.0263 14.9446 9.97729 14.9619 9.93124C14.9791 9.8852 15.0053 9.843 15.0388 9.80705C15.0723 9.77111 15.1126 9.74212 15.1574 9.72175C15.2021 9.70138 15.2505 9.69002 15.2996 9.68833C15.3487 9.68663 15.3977 9.69463 15.4438 9.71187C16.006 9.91942 16.522 10.2354 16.9625 10.6419C17.7522 11.3576 18.2357 12.3501 18.3125 13.4131C18.3184 13.5124 18.2848 13.61 18.2192 13.6848C18.1536 13.7596 18.0611 13.8054 17.9619 13.8125H17.9375C17.8422 13.8126 17.7503 13.7764 17.6807 13.7113C17.611 13.6462 17.5688 13.557 17.5625 13.4619C17.4996 12.591 17.1025 11.7781 16.4544 11.1931ZM19.0278 19.8248L17.5875 18.3846C17.7706 18.241 17.9451 18.0867 18.11 17.9225C18.2123 17.8202 18.3088 17.7138 18.4025 17.6054L19.8249 19.0279L19.0278 19.8248Z" fill="white"/>
<path d="M13.4375 3.6875C13.6446 3.6875 13.8125 3.51961 13.8125 3.3125C13.8125 3.10539 13.6446 2.9375 13.4375 2.9375C13.2304 2.9375 13.0625 3.10539 13.0625 3.3125C13.0625 3.51961 13.2304 3.6875 13.4375 3.6875Z" fill="white"/>
<path d="M8 3.6875C8.20711 3.6875 8.375 3.51961 8.375 3.3125C8.375 3.10539 8.20711 2.9375 8 2.9375C7.79289 2.9375 7.625 3.10539 7.625 3.3125C7.625 3.51961 7.79289 3.6875 8 3.6875Z" fill="white"/>
<path d="M1.625 12.875H7.505C7.54044 12.6222 7.59116 12.3717 7.65687 12.125H1.625C1.52563 12.1247 1.43042 12.0851 1.36016 12.0148C1.28989 11.9446 1.25029 11.8494 1.25 11.75V9.875H8.75C8.93668 9.62686 9.14029 9.39193 9.35938 9.17188C9.74273 8.78724 10.1723 8.45156 10.6381 8.1725C10.3734 8.13115 10.1321 7.99659 9.95781 7.79307C9.78351 7.58955 9.68765 7.33046 9.6875 7.0625C9.68696 6.84073 9.75292 6.6239 9.87687 6.44L8.33563 4.38687C8.11697 4.45438 7.88303 4.45438 7.66437 4.38687L5.4875 7.2875C5.45795 7.3269 5.42093 7.36009 5.37856 7.38518C5.33619 7.41027 5.28928 7.42677 5.24053 7.43373C5.19178 7.4407 5.14214 7.43799 5.09443 7.42577C5.04673 7.41355 5.0019 7.39205 4.9625 7.3625C4.9231 7.33295 4.88991 7.29593 4.86482 7.25356C4.83973 7.21118 4.82323 7.16428 4.81627 7.11553C4.8093 7.06678 4.81201 7.01714 4.82423 6.96943C4.83645 6.92173 4.85795 6.8769 4.8875 6.8375L7.06437 3.935C6.94042 3.7511 6.87446 3.53427 6.875 3.3125C6.875 3.01413 6.99353 2.72798 7.2045 2.517C7.41548 2.30603 7.70163 2.1875 8 2.1875C8.29837 2.1875 8.58452 2.30603 8.7955 2.517C9.00647 2.72798 9.125 3.01413 9.125 3.3125C9.12554 3.53427 9.05958 3.7511 8.93563 3.935L10.4769 5.98812C10.6955 5.92063 10.9295 5.92063 11.1481 5.98812L12.5975 4.05875C12.4271 3.86626 12.3278 3.62115 12.3162 3.3643C12.3047 3.10745 12.3815 2.85441 12.534 2.64739C12.6865 2.44038 12.9053 2.29191 13.154 2.22676C13.4028 2.16161 13.6663 2.18372 13.9007 2.2894C14.1351 2.39508 14.3261 2.57794 14.442 2.80747C14.5578 3.037 14.5914 3.29931 14.5373 3.55064C14.4831 3.80197 14.3443 4.02712 14.1442 4.18852C13.944 4.34991 13.6946 4.43779 13.4375 4.4375C13.3784 4.43724 13.3195 4.43222 13.2612 4.4225L11.7481 6.44C11.8721 6.6239 11.938 6.84073 11.9375 7.0625C11.9386 7.26398 11.8841 7.46186 11.78 7.63437C12.9518 7.21508 14.2186 7.13698 15.4331 7.40915C16.6475 7.68131 17.7598 8.29257 18.6406 9.17188C18.7213 9.2525 18.7981 9.335 18.875 9.41937V1.625C18.8748 1.3267 18.7562 1.04069 18.5452 0.829766C18.3343 0.618839 18.0483 0.500236 17.75 0.5H1.625C1.3267 0.500236 1.04069 0.618839 0.829766 0.829766C0.618839 1.04069 0.500236 1.3267 0.5 1.625V11.75C0.500236 12.0483 0.618839 12.3343 0.829766 12.5452C1.04069 12.7562 1.3267 12.8748 1.625 12.875ZM2 3.125C2.00024 2.8267 2.11884 2.54069 2.32977 2.32977C2.54069 2.11884 2.8267 2.00024 3.125 2H4.25C4.34946 2 4.44484 2.03951 4.51516 2.10984C4.58549 2.18016 4.625 2.27554 4.625 2.375C4.625 2.47446 4.58549 2.56984 4.51516 2.64016C4.44484 2.71049 4.34946 2.75 4.25 2.75H3.125C3.02563 2.75029 2.93042 2.78989 2.86016 2.86016C2.78989 2.93042 2.75029 3.02563 2.75 3.125V3.875C2.75 3.97446 2.71049 4.06984 2.64016 4.14016C2.56984 4.21049 2.47446 4.25 2.375 4.25C2.27554 4.25 2.18016 4.21049 2.10984 4.14016C2.03951 4.06984 2 3.97446 2 3.875V3.125Z" fill="white"/>
<path d="M10.8125 7.4375C11.0196 7.4375 11.1875 7.26961 11.1875 7.0625C11.1875 6.85539 11.0196 6.6875 10.8125 6.6875C10.6054 6.6875 10.4375 6.85539 10.4375 7.0625C10.4375 7.26961 10.6054 7.4375 10.8125 7.4375Z" fill="white"/>
</g>
</g>
</g>
<defs>
<clipPath id="clip0_24_900">
<rect x="0.5" y="0.5" width="24" height="24" rx="4" fill="white"/>
</clipPath>
<clipPath id="clip1_24_900">
<rect width="24" height="24" fill="white" transform="translate(0.5 0.5)"/>
</clipPath>
<clipPath id="clip2_24_900">
<rect width="24" height="24" fill="white" transform="translate(0.5 0.5)"/>
</clipPath>
</defs>
</svg>
